<svg width="17" height="18" viewBox="0 0 17 18" fill="none" xmlns="http://www.w3.org/2000/svg">
<path d="M9.4893 8.00177L9.49637 1.92773C9.49637 1.66142 9.39058 1.40603 9.20227 1.21773C9.01397 1.02942 8.75858 0.923634 8.49227 0.923635C8.22597 0.923635 7.97058 1.02942 7.78227 1.21773C7.59397 1.40603 7.48818 1.66142 7.48818 1.92772L7.49525 8.00177L1.42121 7.9947C1.15491 7.9947 0.89951 8.10049 0.711207 8.28879C0.522903 8.4771 0.417115 8.73249 0.417115 8.99879C0.417115 9.26509 0.522903 9.52049 0.711207 9.70879C0.89951 9.8971 1.15491 10.0029 1.42121 10.0029L7.49525 9.99581L7.48818 16.0699C7.48764 16.2019 7.51324 16.3327 7.56351 16.4547C7.61378 16.5768 7.68772 16.6877 7.78107 16.7811C7.87441 16.8744 7.98532 16.9484 8.10739 16.9986C8.22945 17.0489 8.36026 17.0745 8.49227 17.074C8.62428 17.0745 8.7551 17.0489 8.87716 16.9986C8.99923 16.9484 9.11013 16.8744 9.20348 16.7811C9.29683 16.6877 9.37077 16.5768 9.42104 16.4547C9.47131 16.3327 9.49691 16.2019 9.49637 16.0699L9.4893 9.99581L15.5633 10.0029C15.6954 10.0034 15.8262 9.97782 15.9482 9.92756C16.0703 9.87729 16.1812 9.80335 16.2745 9.71C16.3679 9.61665 16.4418 9.50575 16.4921 9.38368C16.5424 9.26162 16.568 9.1308 16.5674 8.99879C16.568 8.86678 16.5424 8.73597 16.4921 8.6139C16.4418 8.49184 16.3679 8.38093 16.2745 8.28759C16.1812 8.19424 16.0703 8.1203 15.9482 8.07003C15.8262 8.01976 15.6954 7.99416 15.5633 7.9947L9.4893 8.00177Z" fill="#4FCA44"/>
</svg>
