<svg width="1075" height="377" viewBox="0 0 1075 377" fill="none" xmlns="http://www.w3.org/2000/svg">
<path opacity="0.14" d="M252.344 273.367C149.748 356.018 45.8316 397.524 11.3306 366.964C-26.4092 333.535 33.2021 226.535 144.476 127.972C255.75 29.4094 376.55 -23.3923 414.289 10.0363C432.944 26.5603 427.813 61.0607 404.413 103.633C507.008 20.9816 610.924 -20.5237 645.425 10.0363C656.827 20.1355 659.343 36.9494 654.234 58.2174C733.841 6.98215 805.112 -14.2527 832.533 10.0363C851.188 26.5603 846.057 61.0607 822.656 103.633C925.252 20.9816 1029.17 -20.5237 1063.67 10.0363C1101.41 43.465 1041.8 150.465 930.524 249.028C819.25 347.591 698.45 400.392 660.711 366.964C642.055 350.44 647.187 315.939 670.588 273.367C567.992 356.018 464.076 397.524 429.575 366.964C418.173 356.865 415.657 340.051 420.766 318.783C341.159 370.018 269.888 391.253 242.467 366.964C223.812 350.44 228.943 315.939 252.344 273.367Z" fill="#F4646B"/>
</svg>
