<svg width="42" height="42" viewBox="0 0 42 42" fill="none" xmlns="http://www.w3.org/2000/svg">
<path d="M31.36 20.335C31.2767 20.1201 31.1518 19.9239 30.9925 19.7575L22.2425 11.0075C22.0793 10.8443 21.8856 10.7149 21.6724 10.6266C21.4592 10.5382 21.2308 10.4928 21 10.4928C20.534 10.4928 20.087 10.6779 19.7575 11.0075C19.5943 11.1706 19.4649 11.3643 19.3766 11.5775C19.2883 11.7907 19.2428 12.0192 19.2428 12.25C19.2428 12.716 19.428 13.1629 19.7575 13.4925L25.5325 19.25H12.25C11.7859 19.25 11.3408 19.4343 11.0126 19.7625C10.6844 20.0907 10.5 20.5358 10.5 21C10.5 21.4641 10.6844 21.9092 11.0126 22.2374C11.3408 22.5656 11.7859 22.75 12.25 22.75H25.5325L19.7575 28.5075C19.5935 28.6701 19.4633 28.8637 19.3744 29.0769C19.2856 29.2902 19.2399 29.5189 19.2399 29.75C19.2399 29.981 19.2856 30.2097 19.3744 30.423C19.4633 30.6362 19.5935 30.8298 19.7575 30.9925C19.9202 31.1565 20.1137 31.2867 20.327 31.3755C20.5402 31.4644 20.769 31.5101 21 31.5101C21.231 31.5101 21.4598 31.4644 21.673 31.3755C21.8863 31.2867 22.0798 31.1565 22.2425 30.9925L30.9925 22.2425C31.1518 22.076 31.2767 21.8798 31.36 21.665C31.535 21.2389 31.535 20.761 31.36 20.335Z" fill="white"/>
</svg>
