<svg width="34" height="35" viewBox="0 0 34 35" fill="none" xmlns="http://www.w3.org/2000/svg">
<path d="M16.1779 0H17.822V13.2007L22.6581 0.981287L24.1807 1.61985L19.3142 13.9162L28.4363 4.52583L29.5988 5.72257L20.4169 15.1746L32.4757 10.1781L33.0896 11.7482L21.2502 16.6538H34V18.3462H21.1881L33.0587 23.3247L32.4384 24.892L20.4624 19.8694L29.5988 29.2746L28.4363 30.4713L19.2402 21.0048L24.0978 33.4315L22.5725 34.0633L17.822 21.9105V35H16.1779V21.8407L11.3525 34.0334L9.8299 33.3948L14.7198 21.0392L5.55745 30.4711L4.39491 29.2743L13.5593 19.8404L1.54785 24.8172L0.933941 23.2471L12.7622 18.3462H0V16.6538H12.7949L0.950995 11.6865L1.57131 10.1192L13.5429 15.1399L4.39486 5.72282L5.55741 4.52609L14.7092 13.947L9.88035 1.59378L11.4056 0.961989L16.1779 13.1708V0Z" fill="white"/>
</svg>
