<svg width="1440" height="161" viewBox="0 0 1440 161" fill="none" xmlns="http://www.w3.org/2000/svg">
<path d="M-138 151L-147.527 141.473C-156.154 132.846 -161 121.146 -161 108.946V0H1674.5V108.946C1674.5 121.146 1669.65 132.846 1661.03 141.473L1651.5 151C1638.8 163.703 1618.2 163.703 1605.5 151C1592.8 138.297 1572.2 138.297 1559.5 151C1546.8 163.703 1526.2 163.703 1513.5 151C1500.8 138.297 1480.2 138.297 1467.5 151C1454.8 163.703 1434.2 163.703 1421.5 151C1408.8 138.297 1388.2 138.297 1375.5 151C1362.8 163.703 1342.2 163.703 1329.5 151C1316.8 138.297 1296.11 138.393 1283.4 151.096C1270.81 163.693 1250.29 163.788 1237.69 151.191L1237.13 150.628C1224.69 138.192 1204.48 138.36 1192.25 151C1180.02 163.64 1159.81 163.808 1147.37 151.372L1146.81 150.809C1134.21 138.212 1113.69 138.307 1101.1 150.904C1088.39 163.607 1067.7 163.703 1055 151C1042.3 138.297 1021.7 138.297 1009 151C996.297 163.703 975.703 163.703 963 151C950.297 138.297 929.703 138.297 917 151C904.297 163.703 883.607 163.607 870.904 150.904C858.307 138.307 837.788 138.212 825.191 150.809L824.628 151.372C812.192 163.808 791.978 163.64 779.75 151C767.522 138.36 747.308 138.192 734.872 150.628L734.309 151.191C721.712 163.788 701.193 163.693 688.596 151.096C675.893 138.393 655.203 138.297 642.5 151C629.797 163.703 609.203 163.703 596.5 151C583.797 138.297 563.203 138.297 550.5 151C537.797 163.703 517.203 163.703 504.5 151C491.797 138.297 471.203 138.297 458.5 151C445.797 163.703 425.203 163.703 412.5 151C399.797 138.297 379.107 138.393 366.404 151.096C353.807 163.693 333.288 163.788 320.691 151.191L320.128 150.628C307.692 138.192 287.478 138.36 275.25 151C263.022 163.64 242.808 163.808 230.372 151.372L229.809 150.809C217.212 138.212 196.693 138.307 184.096 150.904C171.393 163.607 150.703 163.703 138 151C125.297 138.297 104.703 138.297 92 151C79.2975 163.703 58.7025 163.703 46 151C33.2975 138.297 12.7025 138.297 0 151C-12.7025 163.703 -33.2974 163.703 -46 151C-58.7026 138.297 -79.2974 138.297 -92 151C-104.703 163.703 -125.297 163.703 -138 151Z" fill="white"/>
</svg>
