<svg width="183" height="200" viewBox="0 0 183 200" fill="none" xmlns="http://www.w3.org/2000/svg">
<ellipse opacity="0.1" cx="75.135" cy="87.1893" rx="65.4987" ry="72.34" transform="rotate(-8.18914 75.135 87.1893)" fill="#14623A"/>
<ellipse opacity="0.1" cx="97.4322" cy="120.51" rx="65.4987" ry="52.4894" transform="rotate(-109.976 97.4322 120.51)" fill="#14623A"/>
<ellipse cx="94.5855" cy="92.0023" rx="65.4987" ry="72.34" transform="rotate(22.6816 94.5855 92.0023)" fill="#14623A"/>
<path d="M99.022 81.4493L98.2323 86.1603C98.1012 86.9512 98.1981 87.763 98.5115 88.5009C98.825 89.2387 99.3421 89.872 100.002 90.3267C100.62 90.7768 101.354 91.0393 102.117 91.0827C102.881 91.1262 103.64 90.9488 104.305 90.5718L108.172 88.366L112.093 90.5173C112.746 90.891 113.493 91.0714 114.245 91.0377C114.997 91.0039 115.724 90.7574 116.341 90.3267C116.982 89.8695 117.482 89.2422 117.786 88.5155C118.089 87.7889 118.183 86.992 118.057 86.2148L117.267 81.5038L120.535 78.1816C121.074 77.6335 121.452 76.9477 121.628 76.1991C121.804 75.4506 121.77 74.6681 121.531 73.9373C121.292 73.2065 120.857 72.5554 120.273 72.0552C119.689 71.5551 118.979 71.2251 118.22 71.1014L113.809 70.4479L111.821 66.227C111.492 65.5215 110.969 64.9245 110.313 64.5061C109.657 64.0877 108.895 63.8655 108.117 63.8655C107.339 63.8655 106.577 64.0877 105.921 64.5061C105.265 64.9245 104.742 65.5215 104.414 66.227L102.426 70.4479L98.0144 71.1014C97.2555 71.2251 96.5453 71.5551 95.9613 72.0552C95.3773 72.5554 94.942 73.2065 94.7031 73.9373C94.4642 74.6681 94.4308 75.4506 94.6065 76.1991C94.7823 76.9477 95.1605 77.6335 95.6998 78.1816L99.022 81.4493ZM104.005 75.6491C104.673 75.5478 105.306 75.2837 105.847 74.88C106.388 74.4763 106.822 73.9455 107.11 73.3344L108.172 71.0742L109.234 73.3344C109.525 73.945 109.96 74.4766 110.5 74.8841C111.04 75.2917 111.671 75.5634 112.338 75.6763L115.061 76.0575L113.073 78.0726C112.612 78.5503 112.269 79.1288 112.071 79.7621C111.872 80.3955 111.824 81.0664 111.93 81.7216L112.365 84.4447L110.214 83.2738C109.614 82.94 108.94 82.7647 108.253 82.7647C107.567 82.7647 106.892 82.94 106.293 83.2738L104.141 84.4447L104.577 81.7216C104.685 81.0705 104.638 80.4032 104.439 79.7738C104.24 79.1445 103.896 78.571 103.433 78.0999L101.446 76.0575L104.005 75.6491ZM119.064 96.4809C118.342 96.4809 117.649 96.7678 117.139 97.2785C116.628 97.7892 116.341 98.4818 116.341 99.2041V107.373C116.341 108.096 116.054 108.788 115.543 109.299C115.033 109.81 114.34 110.097 113.618 110.097H75.4942C74.772 110.097 74.0793 109.81 73.5687 109.299C73.058 108.788 72.7711 108.096 72.7711 107.373V81.2587L88.783 97.2707C89.529 98.0303 90.419 98.6334 91.4009 99.0449C92.3828 99.4564 93.437 99.6679 94.5016 99.667H95.2368C95.9551 99.6046 96.6192 99.26 97.0838 98.7087C97.5483 98.1574 97.7753 97.4444 97.7149 96.726C97.6841 96.3679 97.5827 96.0194 97.4166 95.7006C97.2505 95.3818 97.0229 95.0991 96.7469 94.8687C96.471 94.6384 96.1522 94.4649 95.8089 94.3584C95.4656 94.2518 95.1046 94.2143 94.7467 94.248C94.3623 94.2874 93.974 94.2393 93.6108 94.1072C93.2477 93.9752 92.9192 93.7626 92.6499 93.4855L76.6107 77.4191H86.3867C87.1089 77.4191 87.8015 77.1322 88.3122 76.6215C88.8229 76.1108 89.1098 75.4182 89.1098 74.696C89.1098 73.9737 88.8229 73.2811 88.3122 72.7704C87.8015 72.2597 87.1089 71.9728 86.3867 71.9728H75.4942C73.3275 71.9728 71.2496 72.8335 69.7176 74.3656C68.1855 75.8976 67.3248 77.9756 67.3248 80.1422V107.373C67.3248 109.54 68.1855 111.618 69.7176 113.15C71.2496 114.682 73.3275 115.543 75.4942 115.543H113.618C115.785 115.543 117.862 114.682 119.395 113.15C120.927 111.618 121.787 109.54 121.787 107.373V99.2041C121.787 98.4818 121.5 97.7892 120.99 97.2785C120.479 96.7678 119.786 96.4809 119.064 96.4809Z" fill="white"/>
</svg>
