<svg width="34" height="34" viewBox="0 0 34 34" fill="none" xmlns="http://www.w3.org/2000/svg">
<circle cx="17" cy="17" r="17" fill="white"/>
<circle cx="17" cy="17" r="14" fill="#E8434B"/>
<path d="M13.3938 22.078C12.6918 22.078 12.0635 21.8917 11.5088 21.519C10.9628 21.1463 10.5338 20.6133 10.2218 19.92C9.91849 19.218 9.76682 18.3947 9.76682 17.45C9.76682 16.5053 9.91849 15.6863 10.2218 14.993C10.5338 14.291 10.9628 13.7537 11.5088 13.381C12.0635 13.0083 12.6918 12.822 13.3938 12.822C14.0958 12.822 14.7198 13.0083 15.2658 13.381C15.8205 13.7537 16.2538 14.291 16.5658 14.993C16.8778 15.6863 17.0338 16.5053 17.0338 17.45C17.0338 18.3947 16.8778 19.218 16.5658 19.92C16.2538 20.6133 15.8205 21.1463 15.2658 21.519C14.7198 21.8917 14.0958 22.078 13.3938 22.078ZM13.3938 21.22C13.9225 21.22 14.3862 21.0727 14.7848 20.778C15.1922 20.4833 15.5085 20.0543 15.7338 19.491C15.9592 18.9277 16.0718 18.2473 16.0718 17.45C16.0718 16.6527 15.9592 15.9723 15.7338 15.409C15.5085 14.8457 15.1922 14.4167 14.7848 14.122C14.3862 13.8273 13.9225 13.68 13.3938 13.68C12.8652 13.68 12.3972 13.8273 11.9898 14.122C11.5912 14.4167 11.2792 14.8457 11.0538 15.409C10.8285 15.9723 10.7158 16.6527 10.7158 17.45C10.7158 18.2473 10.8285 18.9277 11.0538 19.491C11.2792 20.0543 11.5912 20.4833 11.9898 20.778C12.3972 21.0727 12.8652 21.22 13.3938 21.22ZM21.3413 16.8C22.2946 16.852 23.0183 17.112 23.5123 17.58C24.015 18.0393 24.2663 18.6417 24.2663 19.387C24.2663 19.907 24.1406 20.3707 23.8893 20.778C23.638 21.1767 23.2653 21.493 22.7713 21.727C22.2773 21.961 21.675 22.078 20.9643 22.078C20.3056 22.078 19.6816 21.974 19.0923 21.766C18.5116 21.5493 18.0436 21.2633 17.6883 20.908L18.1433 20.167C18.4466 20.479 18.8496 20.7347 19.3523 20.934C19.855 21.1247 20.3923 21.22 20.9643 21.22C21.7096 21.22 22.286 21.0597 22.6933 20.739C23.1006 20.4097 23.3043 19.959 23.3043 19.387C23.3043 18.8237 23.1006 18.3817 22.6933 18.061C22.286 17.7403 21.6706 17.58 20.8473 17.58H20.1973V16.891L22.7193 13.732H18.0653V12.9H23.9153V13.563L21.3413 16.8Z" fill="white"/>
</svg>
