<svg width="183" height="200" viewBox="0 0 183 200" fill="none" xmlns="http://www.w3.org/2000/svg">
<ellipse opacity="0.1" cx="75.135" cy="87.1895" rx="65.4987" ry="72.34" transform="rotate(-8.18914 75.135 87.1895)" fill="#1A673C"/>
<ellipse opacity="0.1" cx="97.4322" cy="120.51" rx="65.4987" ry="52.4894" transform="rotate(-109.976 97.4322 120.51)" fill="#1A673C"/>
<ellipse cx="94.5855" cy="92.0023" rx="65.4987" ry="72.34" transform="rotate(22.6816 94.5855 92.0023)" fill="#1A673C"/>
<path d="M116.887 77.44C116.807 77.142 116.669 76.8628 116.481 76.6185C116.293 76.3742 116.058 76.1697 115.79 76.0167L103.657 69.0167C103.392 68.8614 103.099 68.76 102.795 68.7182C102.49 68.6764 102.181 68.695 101.884 68.7731C101.587 68.8511 101.308 68.987 101.064 69.1729C100.82 69.3589 100.614 69.5912 100.46 69.8567L95 79.33L89.54 69.8567C89.3856 69.5912 89.1804 69.3589 88.936 69.1729C88.6917 68.987 88.413 68.8511 88.116 68.7731C87.8191 68.695 87.5096 68.6764 87.2054 68.7182C86.9012 68.76 86.6083 68.8614 86.3433 69.0167L74.21 76.0167C73.9422 76.1697 73.7074 76.3742 73.5192 76.6185C73.3309 76.8628 73.193 77.142 73.1133 77.44C72.9589 78.0314 73.0427 78.6597 73.3467 79.19L82.68 95.1267C81.6387 97.0343 81.0631 99.161 81 101.333C80.9945 103.453 81.4701 105.546 82.3912 107.454C83.3122 109.363 84.6546 111.038 86.3171 112.352C87.9796 113.667 89.9188 114.586 91.9885 115.042C94.0583 115.498 96.2045 115.478 98.2654 114.984C100.326 114.49 102.248 113.534 103.886 112.189C105.523 110.844 106.834 109.144 107.72 107.219C108.605 105.293 109.042 103.192 108.997 101.073C108.952 98.9539 108.426 96.8729 107.46 94.9867L116.56 79.2133C116.729 78.9542 116.845 78.6639 116.902 78.3595C116.958 78.055 116.953 77.7425 116.887 77.44ZM78.6667 78.8867L86.74 74.22L94.2533 87.3333C91.0507 87.5312 88.0158 88.8342 85.6667 91.02L78.6667 78.8867ZM95 110.667C92.5247 110.667 90.1507 109.683 88.4003 107.933C86.65 106.183 85.6667 103.809 85.6667 101.333C85.6667 98.858 86.65 96.484 88.4003 94.7337C90.1507 92.9833 92.5247 92 95 92C97.4754 92 99.8493 92.9833 101.6 94.7337C103.35 96.484 104.333 98.858 104.333 101.333C104.333 103.809 103.35 106.183 101.6 107.933C99.8493 109.683 97.4754 110.667 95 110.667ZM104.333 90.95C103.067 89.7929 101.595 88.8828 99.9933 88.2667L97.7067 83.9967L103.353 74.22L111.427 78.8867L104.333 90.95Z" fill="white"/>
</svg>
