<svg width="24" height="15" viewBox="0 0 24 15" fill="none" xmlns="http://www.w3.org/2000/svg">
<path fill-rule="evenodd" clip-rule="evenodd" d="M22.7198 1.58105C22.8867 1.0523 22.7198 0.66793 21.9815 0.66793H19.5267C18.9075 0.66793 18.6215 1.00449 18.4547 1.36449C18.4547 1.36449 17.1919 4.43949 15.4284 6.43309C14.8565 7.00965 14.5945 7.20184 14.2847 7.20184C14.1178 7.20184 13.9031 7.00965 13.9031 6.48137V1.55621C13.9031 0.931836 13.7128 0.643555 13.1883 0.643555H9.32764C8.94607 0.643555 8.70795 0.931836 8.70795 1.22012C8.70795 1.82059 9.58967 1.96496 9.68482 3.64637V7.2998C9.68482 8.09246 9.5442 8.2373 9.23201 8.2373C8.39811 8.2373 6.37264 5.1384 5.15764 1.6073C4.92139 0.90793 4.68139 0.643555 4.0617 0.643555H1.58342C0.868574 0.643555 0.749512 0.979648 0.749512 1.34012C0.749512 1.98887 1.58342 5.25559 4.63357 9.57934C6.65904 12.5325 9.54232 14.1196 12.1397 14.1196C13.7128 14.1196 13.9031 13.7592 13.9031 13.1587V10.9246C13.9031 10.2042 14.0461 10.0842 14.5467 10.0842C14.9039 10.0842 15.5475 10.2759 17.0011 11.6934C18.6689 13.3748 18.9548 14.1436 19.8844 14.1436H22.3387C23.0536 14.1436 23.3873 13.7831 23.1965 13.0865C22.9823 12.39 22.1719 11.3812 21.1233 10.1803C20.5514 9.50809 19.6936 8.76324 19.4315 8.40277C19.0744 7.9223 19.1695 7.73012 19.4315 7.29793C19.4076 7.29793 22.4105 3.02199 22.7198 1.57918" fill="#222222"/>
</svg>
