<svg width="129" height="35" viewBox="0 0 129 35" fill="none" xmlns="http://www.w3.org/2000/svg">
<path d="M16.1779 0H17.822V13.2007L22.6581 0.981287L24.1807 1.61985L19.3142 13.9162L28.4363 4.52583L29.5988 5.72257L20.4169 15.1746L32.4757 10.1781L33.0896 11.7482L21.2502 16.6538H34V18.3462H21.1881L33.0587 23.3247L32.4384 24.892L20.4624 19.8694L29.5988 29.2746L28.4363 30.4713L19.2402 21.0048L24.0978 33.4315L22.5725 34.0633L17.822 21.9105V35H16.1779V21.8407L11.3525 34.0334L9.8299 33.3948L14.7198 21.0392L5.55745 30.4711L4.39491 29.2743L13.5593 19.8404L1.54785 24.8172L0.933941 23.2471L12.7622 18.3462H0V16.6538H12.7949L0.950995 11.6865L1.57131 10.1192L13.5429 15.1399L4.39486 5.72282L5.55741 4.52609L14.7092 13.947L9.88035 1.59378L11.4056 0.961989L16.1779 13.1708V0Z" fill="#E8434B"/>
<path d="M53.836 11.026V23.626H52.36L44.8 14.23V23.626H43V11.026H44.476L52.036 20.422V11.026H53.836Z" fill="#E8434B"/>
<path d="M60.8294 13.996C62.1494 13.996 63.1574 14.32 63.8534 14.968C64.5614 15.616 64.9154 16.582 64.9154 17.866V23.626H63.2774V22.366C62.9894 22.81 62.5754 23.152 62.0354 23.392C61.5074 23.62 60.8774 23.734 60.1454 23.734C59.0774 23.734 58.2194 23.476 57.5714 22.96C56.9354 22.444 56.6174 21.766 56.6174 20.926C56.6174 20.086 56.9234 19.414 57.5354 18.91C58.1474 18.394 59.1194 18.136 60.4514 18.136H63.1874V17.794C63.1874 17.05 62.9714 16.48 62.5394 16.084C62.1074 15.688 61.4714 15.49 60.6314 15.49C60.0674 15.49 59.5154 15.586 58.9754 15.778C58.4354 15.958 57.9794 16.204 57.6074 16.516L56.8874 15.22C57.3794 14.824 57.9674 14.524 58.6514 14.32C59.3354 14.104 60.0614 13.996 60.8294 13.996ZM60.4334 22.402C61.0934 22.402 61.6634 22.258 62.1434 21.97C62.6234 21.67 62.9714 21.25 63.1874 20.71V19.378H60.5234C59.0594 19.378 58.3274 19.87 58.3274 20.854C58.3274 21.334 58.5134 21.712 58.8854 21.988C59.2574 22.264 59.7734 22.402 60.4334 22.402Z" fill="#E8434B"/>
<path d="M80.0472 13.996C81.2472 13.996 82.1952 14.344 82.8912 15.04C83.5992 15.736 83.9532 16.768 83.9532 18.136V23.626H82.2252V18.334C82.2252 17.41 82.0092 16.714 81.5772 16.246C81.1572 15.778 80.5512 15.544 79.7592 15.544C78.8832 15.544 78.1872 15.82 77.6712 16.372C77.1552 16.912 76.8972 17.692 76.8972 18.712V23.626H75.1692V18.334C75.1692 17.41 74.9532 16.714 74.5212 16.246C74.1012 15.778 73.4952 15.544 72.7032 15.544C71.8272 15.544 71.1312 15.82 70.6152 16.372C70.0992 16.912 69.8412 17.692 69.8412 18.712V23.626H68.1132V14.086H69.7692V15.508C70.1172 15.016 70.5732 14.644 71.1372 14.392C71.7012 14.128 72.3432 13.996 73.0632 13.996C73.8072 13.996 74.4672 14.146 75.0432 14.446C75.6192 14.746 76.0632 15.184 76.3752 15.76C76.7352 15.208 77.2332 14.776 77.8692 14.464C78.5172 14.152 79.2432 13.996 80.0472 13.996Z" fill="#E8434B"/>
<path d="M95.8075 18.91C95.8075 19.042 95.7955 19.216 95.7715 19.432H88.0315C88.1395 20.272 88.5055 20.95 89.1295 21.466C89.7655 21.97 90.5515 22.222 91.4875 22.222C92.6275 22.222 93.5455 21.838 94.2415 21.07L95.1955 22.186C94.7635 22.69 94.2235 23.074 93.5755 23.338C92.9395 23.602 92.2255 23.734 91.4335 23.734C90.4255 23.734 89.5315 23.53 88.7515 23.122C87.9715 22.702 87.3655 22.12 86.9335 21.376C86.5135 20.632 86.3035 19.792 86.3035 18.856C86.3035 17.932 86.5075 17.098 86.9155 16.354C87.3355 15.61 87.9055 15.034 88.6255 14.626C89.3575 14.206 90.1795 13.996 91.0915 13.996C92.0035 13.996 92.8135 14.206 93.5215 14.626C94.2415 15.034 94.7995 15.61 95.1955 16.354C95.6035 17.098 95.8075 17.95 95.8075 18.91ZM91.0915 15.454C90.2635 15.454 89.5675 15.706 89.0035 16.21C88.4515 16.714 88.1275 17.374 88.0315 18.19H94.1515C94.0555 17.386 93.7255 16.732 93.1615 16.228C92.6095 15.712 91.9195 15.454 91.0915 15.454Z" fill="#E8434B"/>
<path d="M100.943 23.734C100.163 23.734 99.413 23.632 98.693 23.428C97.973 23.212 97.409 22.942 97.001 22.618L97.721 21.25C98.141 21.55 98.651 21.79 99.251 21.97C99.851 22.15 100.457 22.24 101.069 22.24C102.581 22.24 103.337 21.808 103.337 20.944C103.337 20.656 103.235 20.428 103.031 20.26C102.827 20.092 102.569 19.972 102.257 19.9C101.957 19.816 101.525 19.726 100.961 19.63C100.193 19.51 99.563 19.372 99.071 19.216C98.591 19.06 98.177 18.796 97.829 18.424C97.481 18.052 97.307 17.53 97.307 16.858C97.307 15.994 97.667 15.304 98.387 14.788C99.107 14.26 100.073 13.996 101.285 13.996C101.921 13.996 102.557 14.074 103.193 14.23C103.829 14.386 104.351 14.596 104.759 14.86L104.021 16.228C103.241 15.724 102.323 15.472 101.267 15.472C100.535 15.472 99.977 15.592 99.593 15.832C99.209 16.072 99.017 16.39 99.017 16.786C99.017 17.098 99.125 17.344 99.341 17.524C99.557 17.704 99.821 17.836 100.133 17.92C100.457 18.004 100.907 18.1 101.483 18.208C102.251 18.34 102.869 18.484 103.337 18.64C103.817 18.784 104.225 19.036 104.561 19.396C104.897 19.756 105.065 20.26 105.065 20.908C105.065 21.772 104.693 22.462 103.949 22.978C103.217 23.482 102.215 23.734 100.943 23.734Z" fill="#E8434B"/>
<path d="M107.225 14.086H108.953V23.626H107.225V14.086ZM108.089 12.25C107.753 12.25 107.471 12.142 107.243 11.926C107.027 11.71 106.919 11.446 106.919 11.134C106.919 10.822 107.027 10.558 107.243 10.342C107.471 10.114 107.753 10 108.089 10C108.425 10 108.701 10.108 108.917 10.324C109.145 10.528 109.259 10.786 109.259 11.098C109.259 11.422 109.145 11.698 108.917 11.926C108.701 12.142 108.425 12.25 108.089 12.25Z" fill="#E8434B"/>
<path d="M117.616 23.068C117.364 23.284 117.052 23.452 116.68 23.572C116.308 23.68 115.924 23.734 115.528 23.734C114.568 23.734 113.824 23.476 113.296 22.96C112.768 22.444 112.504 21.706 112.504 20.746V15.508H110.884V14.086H112.504V11.998H114.232V14.086H116.968V15.508H114.232V20.674C114.232 21.19 114.358 21.586 114.61 21.862C114.874 22.138 115.246 22.276 115.726 22.276C116.254 22.276 116.704 22.126 117.076 21.826L117.616 23.068Z" fill="#E8434B"/>
<path d="M128.011 18.91C128.011 19.042 127.999 19.216 127.975 19.432H120.235C120.343 20.272 120.709 20.95 121.333 21.466C121.969 21.97 122.755 22.222 123.691 22.222C124.831 22.222 125.749 21.838 126.445 21.07L127.399 22.186C126.967 22.69 126.427 23.074 125.779 23.338C125.143 23.602 124.429 23.734 123.637 23.734C122.629 23.734 121.735 23.53 120.955 23.122C120.175 22.702 119.569 22.12 119.137 21.376C118.717 20.632 118.507 19.792 118.507 18.856C118.507 17.932 118.711 17.098 119.119 16.354C119.539 15.61 120.109 15.034 120.829 14.626C121.561 14.206 122.383 13.996 123.295 13.996C124.207 13.996 125.017 14.206 125.725 14.626C126.445 15.034 127.003 15.61 127.399 16.354C127.807 17.098 128.011 17.95 128.011 18.91ZM123.295 15.454C122.467 15.454 121.771 15.706 121.207 16.21C120.655 16.714 120.331 17.374 120.235 18.19H126.355C126.259 17.386 125.929 16.732 125.365 16.228C124.813 15.712 124.123 15.454 123.295 15.454Z" fill="#E8434B"/>
</svg>
