<svg width="34" height="34" viewBox="0 0 34 34" fill="none" xmlns="http://www.w3.org/2000/svg">
<circle cx="17" cy="17" r="17" fill="#E8434B"/>
<path d="M16.5164 7H17.4836V14.9204L20.3283 7.58877L21.2239 7.97191L18.3613 15.3497L23.7272 9.7155L24.4111 10.4335L19.0099 16.1048L26.1034 13.1069L26.4645 14.0489L19.5001 16.9923H27V18.0077H19.4636L26.4463 20.9948L26.0814 21.9352L19.0367 18.9216L24.4111 24.5648L23.7272 25.2828L18.3178 19.6029L21.1752 27.0589L20.278 27.438L17.4836 20.1463V28H16.5164V20.1044L13.6779 27.42L12.7823 27.0369L15.6587 19.6235L10.2691 25.2826L9.58524 24.5646L14.976 18.9043L7.9105 21.8903L7.54938 20.9483L14.5072 18.0077H7V16.9923H14.5264L7.55941 14.0119L7.9243 13.0715L14.9664 16.084L9.58521 10.4337L10.2691 9.71565L15.6525 15.3682L12.812 7.95627L13.7092 7.57719L16.5164 14.9025V7Z" fill="white"/>
</svg>
