<svg width="41" height="42" viewBox="0 0 41 42" fill="none" xmlns="http://www.w3.org/2000/svg">
<circle cx="20.5" cy="21" r="20.5" fill="white" fill-opacity="0.22"/>
<path d="M26.9358 20.587C26.884 20.4535 26.8065 20.3316 26.7075 20.2282L21.2719 14.7926C21.1705 14.6913 21.0502 14.6108 20.9177 14.556C20.7853 14.5011 20.6434 14.4729 20.5 14.4729C20.2105 14.4729 19.9329 14.5879 19.7282 14.7926C19.6268 14.894 19.5464 15.0143 19.4915 15.1467C19.4367 15.2792 19.4085 15.4211 19.4085 15.5645C19.4085 15.854 19.5235 16.1316 19.7282 16.3363L23.3157 19.913H15.0644C14.7761 19.913 14.4996 20.0275 14.2957 20.2314C14.0918 20.4352 13.9773 20.7118 13.9773 21.0001C13.9773 21.2884 14.0918 21.5649 14.2957 21.7688C14.4996 21.9727 14.7761 22.0872 15.0644 22.0872H23.3157L19.7282 25.6638C19.6263 25.7649 19.5454 25.8851 19.4902 26.0176C19.435 26.1501 19.4066 26.2922 19.4066 26.4357C19.4066 26.5792 19.435 26.7213 19.4902 26.8538C19.5454 26.9862 19.6263 27.1065 19.7282 27.2075C19.8292 27.3094 19.9495 27.3903 20.0819 27.4455C20.2144 27.5007 20.3565 27.5291 20.5 27.5291C20.6435 27.5291 20.7856 27.5007 20.9181 27.4455C21.0506 27.3903 21.1708 27.3094 21.2719 27.2075L26.7075 21.7719C26.8065 21.6685 26.884 21.5466 26.9358 21.4132C27.0445 21.1485 27.0445 20.8516 26.9358 20.587Z" fill="white"/>
</svg>
