<svg width="41" height="42" viewBox="0 0 41 42" fill="none" xmlns="http://www.w3.org/2000/svg">
<circle cx="20.5" cy="20.5" r="20.5" transform="matrix(-1 0 0 1 41 0.5)" fill="white" fill-opacity="0.22"/>
<path d="M14.0642 20.587C14.116 20.4535 14.1935 20.3316 14.2925 20.2282L19.7281 14.7926C19.8295 14.6913 19.9498 14.6108 20.0823 14.556C20.2147 14.5011 20.3566 14.4729 20.5 14.4729C20.7895 14.4729 21.0671 14.5879 21.2718 14.7926C21.3732 14.894 21.4536 15.0143 21.5085 15.1467C21.5633 15.2792 21.5915 15.4211 21.5915 15.5645C21.5915 15.854 21.4765 16.1316 21.2718 16.3363L17.6843 19.913H25.9356C26.2239 19.913 26.5004 20.0275 26.7043 20.2314C26.9082 20.4352 27.0227 20.7118 27.0227 21.0001C27.0227 21.2884 26.9082 21.5649 26.7043 21.7688C26.5004 21.9727 26.2239 22.0872 25.9356 22.0872H17.6843L21.2718 25.6638C21.3737 25.7649 21.4546 25.8851 21.5098 26.0176C21.565 26.1501 21.5934 26.2922 21.5934 26.4357C21.5934 26.5792 21.565 26.7213 21.5098 26.8538C21.4546 26.9862 21.3737 27.1065 21.2718 27.2075C21.1708 27.3094 21.0505 27.3903 20.9181 27.4455C20.7856 27.5007 20.6435 27.5291 20.5 27.5291C20.3565 27.5291 20.2144 27.5007 20.0819 27.4455C19.9494 27.3903 19.8292 27.3094 19.7281 27.2075L14.2925 21.7719C14.1935 21.6685 14.116 21.5466 14.0642 21.4132C13.9555 21.1485 13.9555 20.8516 14.0642 20.587Z" fill="white"/>
</svg>
