<svg width="1440" height="1429" viewBox="0 0 1440 1429" fill="none" xmlns="http://www.w3.org/2000/svg">
<path d="M-195 969.533C-174.159 995.419 -150.257 1011 -123.803 1014.12C-34.1484 1024.69 60.3235 889.206 120.849 684.363C148.487 797.628 195.868 871.077 256.833 878.269C346.487 888.845 440.959 753.358 501.484 548.514C529.122 661.78 576.504 735.229 637.469 742.421C727.123 752.997 821.594 617.51 882.119 412.666C909.758 525.932 957.139 599.381 1018.1 606.573C1107.76 617.149 1202.23 481.661 1262.76 276.818C1290.39 390.084 1337.77 463.533 1398.74 470.725C1488.39 481.301 1582.87 345.813 1643.39 140.97C1671.03 254.236 1718.41 327.685 1779.38 334.877C1884.46 347.273 1996.13 159.125 2052 -106V1429H-195V969.533Z" fill="white"/>
</svg>
