<svg width="296" height="162" viewBox="0 0 296 162" fill="none" xmlns="http://www.w3.org/2000/svg">
<g clip-path="url(#clip0_998_2751)">
<g filter="url(#filter0_d_998_2751)">
<rect width="296" height="162" rx="18" fill="#1A673C"/>
</g>
<ellipse cx="50.411" cy="119.411" rx="48.5" ry="143" transform="rotate(45 50.411 119.411)" fill="#4CAD44" fill-opacity="0.57"/>
<ellipse cx="166.411" cy="119.411" rx="48.5" ry="143" transform="rotate(45 166.411 119.411)" fill="#4CAD44" fill-opacity="0.57"/>
<path d="M217.543 197.701C245.868 189.904 273.489 179.909 301.525 171.117C329.477 162.325 358.011 154.652 387.249 151.666C403.548 150.007 420.012 149.8 436.311 151.666C437.099 151.749 437.099 150.505 436.311 150.422C407.363 147.146 378.125 150.339 349.799 156.601C321.058 162.947 293.189 172.444 265.278 181.651C249.352 186.918 233.427 192.061 217.252 196.498C216.423 196.705 216.755 197.908 217.543 197.701Z" fill="#E8E8E8"/>
<path d="M-72.2273 143.62C-43.4867 143.289 -14.7875 148.514 11.9624 159.007C19.6348 162.034 27.1414 165.518 34.4406 169.375C35.1456 169.748 35.7677 168.67 35.0627 168.297C9.55694 154.777 -18.5201 146.316 -47.2192 143.454C-55.5137 142.625 -63.8912 142.252 -72.2273 142.376C-73.0152 142.376 -73.0152 143.62 -72.2273 143.62Z" fill="#E8E8E8"/>
<path d="M-43.2794 94.973C-20.5938 100.655 0.101051 111.811 21.5424 120.893C43.1912 130.059 65.9182 136.404 89.1844 139.556C102.29 141.339 115.561 142.127 128.791 141.92C129.579 141.92 129.579 140.676 128.791 140.676C104.944 141.049 81.0558 138.146 57.997 132.091C46.6749 129.105 35.6017 125.372 24.7773 120.893C14.0359 116.456 3.50182 111.396 -7.1152 106.71C-18.769 101.567 -30.5888 96.8392 -42.9476 93.7703C-43.6941 93.5629 -44.0259 94.7656 -43.2794 94.973Z" fill="#E8E8E8"/>
<path d="M111.289 166.597C132.814 174.891 156.453 170.371 177.563 163.071C188.926 159.131 199.958 154.404 211.239 150.298C222.312 146.275 233.551 142.791 244.956 139.847C258.144 136.446 271.54 133.792 285.019 131.884C285.807 131.759 285.475 130.557 284.687 130.681C261.338 133.999 238.362 139.556 216.091 147.27C194.193 154.86 173.001 165.601 149.818 168.877C137.002 170.702 123.773 170.08 111.621 165.394C110.875 165.103 110.543 166.306 111.289 166.597Z" fill="#E8E8E8"/>
<ellipse cx="32.7402" cy="88.752" rx="4.23022" ry="4.14727" fill="#E8434B"/>
<ellipse cx="194.442" cy="144.45" rx="3.23487" ry="3.15193" fill="#E8434B"/>
<ellipse cx="24.3627" cy="82.4896" rx="4.1058" ry="4.02285" fill="#E8434B"/>
<ellipse cx="278.176" cy="35.0036" rx="3.06898" ry="2.98604" fill="#E8434B"/>
<ellipse cx="290.576" cy="24.3451" rx="2.57131" ry="2.48836" fill="#E8434B"/>
<path d="M10.6352 147.063C6.81975 147.146 5.20231 152.454 6.44649 155.606C7.02711 157.058 8.31276 157.431 9.76431 157.182C10.2205 157.099 10.8011 156.809 11.2988 156.809C13.248 156.933 13.2065 158.136 12.6259 159.297C12.2112 160.127 11.755 160.79 11.5476 161.703C11.2988 162.864 11.5062 164.15 12.7089 164.647C13.3724 164.938 14.1604 164.44 14.741 164.647C16.8147 165.311 15.1558 167.924 14.9899 169.209C14.824 170.619 15.1972 172.237 16.5658 172.9C17.7685 173.481 19.2201 173.108 19.8422 171.905C20.2154 171.2 19.1371 170.578 18.7639 171.283C17.3538 172.403 16.5244 171.988 16.1926 169.956C16.1926 169.375 16.2755 168.836 16.4414 168.297C16.6488 167.384 17.0635 166.555 17.1465 165.601C17.1879 164.938 17.1465 164.232 16.6488 163.735C15.6534 162.822 13.248 164.15 12.7089 162.532C12.3771 161.537 13.8701 159.878 14.1604 158.965C14.741 157.182 14.036 155.399 11.9209 155.44C10.179 155.482 8.1054 157.265 7.48331 154.155C7.02711 151.998 8.06393 148.307 10.7182 148.265C11.4232 148.265 11.4647 147.021 10.6352 147.063Z" fill="#E8434B"/>
<path d="M241.763 106.005C237.574 106.088 233.675 108.991 232.68 113.138C231.809 116.746 234.049 121.06 238.154 118.82C239.606 118.032 241.058 116.622 241.306 114.88C241.472 113.511 240.601 112.35 239.15 112.475C237.118 112.641 235.251 115.046 234.173 116.539C232.929 118.239 231.643 120.603 231.851 122.801C232.265 126.575 237.698 127.322 239.606 124.336C239.938 123.838 239.274 123.092 238.735 123.465C235.873 125.663 232.887 129.271 234.007 133.17C234.878 136.239 238.196 138.437 241.306 137.358C242.053 137.109 241.721 135.907 240.975 136.156C238.196 137.109 235.293 134.787 235.044 131.967C234.795 128.939 237.076 126.285 239.357 124.543C239.067 124.253 238.777 123.963 238.486 123.672C237.657 124.999 235.791 125.29 234.422 124.585C232.473 123.548 233.012 121.308 233.758 119.649C234.38 118.239 235.293 116.954 236.33 115.834C236.744 115.378 237.823 114.134 238.403 114.051C238.942 114.175 239.523 114.341 240.062 114.465C240.021 115.004 239.855 115.461 239.565 115.917C238.445 117.742 235.625 119.193 234.09 117.078C233.053 115.71 233.717 113.138 234.422 111.77C235.832 109.032 238.652 107.291 241.68 107.249C242.551 107.208 242.551 105.963 241.763 106.005Z" fill="#E8434B"/>
<path d="M11.5891 -98.9948C11.2158 -66.812 2.9213 -34.878 -12.2992 -6.51064C-16.5709 1.49359 -21.4232 9.16604 -26.7317 16.5067C-27.1879 17.1703 -26.1096 17.7924 -25.6534 17.1288C-6.6589 -9.12343 5.90733 -39.8962 10.6767 -71.9961C12.0038 -80.9542 12.7089 -89.9952 12.8333 -99.0363C12.8747 -99.7828 11.6306 -99.7828 11.5891 -98.9948Z" fill="#E8E8E8"/>
<path d="M246.408 -79.1708C243.505 -63.3282 241.265 -46.7391 242.053 -30.6062C242.675 -17.3764 246.283 -3.56603 257.066 4.97735C263.494 10.0785 271.333 12.8986 279.005 15.6358C279.752 15.9261 280.084 14.7234 279.337 14.4331C272.577 11.9862 265.651 9.53934 259.72 5.39207C254.039 1.45216 249.85 -4.06371 247.237 -10.4505C242.136 -22.9753 242.8 -37.2004 243.836 -50.4302C244.583 -59.9689 245.869 -69.4662 247.569 -78.8805C247.735 -79.627 246.532 -79.9588 246.408 -79.1708Z" fill="#E8E8E8"/>
<path d="M-23.5383 24.2208C7.40038 29.0731 35.9336 46.7819 54.1401 72.2876C59.2413 79.4624 63.513 87.2178 66.7478 95.3879C67.0381 96.1344 68.2408 95.8027 67.9505 95.0562C56.3382 65.7764 32.0766 42.3858 3.08722 30.4002C-5.37322 26.9165 -14.2069 24.4281 -23.2065 23.018C-23.9945 22.8936 -24.3263 24.0963 -23.5383 24.2208Z" fill="#E8E8E8"/>
<path d="M74.7521 96.4247C89.3919 85.0612 108.801 82.2411 126.759 84.8953C145.919 87.7155 163.296 96.9224 178.973 107.954C188.429 114.59 197.345 121.93 206.262 129.271C206.884 129.769 207.755 128.898 207.133 128.4C191.042 115.129 174.701 101.692 155.748 92.6922C138.827 84.6465 119.75 80.6236 101.087 83.817C91.2167 85.5174 81.8439 89.3744 73.8811 95.5123C73.259 96.0515 74.13 96.9224 74.7521 96.4247Z" fill="#E8E8E8"/>
<path d="M205.723 121.599C212.856 90.7843 232.307 63.4123 258.352 45.6205C265.817 40.5194 273.821 36.2062 282.199 32.8054C282.945 32.5151 282.613 31.3124 281.867 31.6027C252.172 43.7128 227.33 66.9789 213.437 95.8854C209.538 104.014 206.552 112.516 204.52 121.267C204.354 122.055 205.557 122.386 205.723 121.599Z" fill="#E8E8E8"/>
<path d="M18.6395 47.8602C24.8604 50.5144 29.5468 55.7815 33.9844 60.7167C38.5879 65.8179 42.8181 71.2508 46.7165 76.9326C54.2645 88.0058 60.2781 100.033 64.5913 112.724C64.8401 113.47 66.0428 113.138 65.794 112.392C61.3564 99.4108 55.1355 87.0519 47.3801 75.7298C43.5646 70.1725 39.3758 64.864 34.8553 59.8458C30.3348 54.8691 25.5654 49.4776 19.2616 46.8234C18.5565 46.4501 17.893 47.5284 18.6395 47.8602Z" fill="#161616"/>
<path d="M201.741 99.784C208.253 82.9875 218.745 67.9329 232.182 55.9473C232.763 55.4082 231.892 54.5372 231.312 55.0764C217.708 67.2279 207.133 82.4484 200.539 99.4522C200.248 100.199 201.451 100.489 201.741 99.784Z" fill="#161616"/>
<path d="M77.2818 88.4618C87.7329 77.4716 103.658 72.4119 118.589 75.0662C119.377 75.1906 119.708 73.9879 118.92 73.8634C103.534 71.1262 87.1938 76.2274 76.4109 87.5909C75.8303 88.1301 76.7012 89.0425 77.2818 88.4618Z" fill="#E8434B"/>
<path d="M-15.1609 19.0365C-6.36867 20.8613 2.09176 23.8059 10.096 27.8702C10.801 28.2434 11.4231 27.1651 10.7181 26.7919C2.63091 22.6861 -5.95395 19.6586 -14.8291 17.8338C-15.6171 17.6679 -15.9489 18.8706 -15.1609 19.0365Z" fill="#E8434B"/>
<path d="M179.471 84.9368C184.364 75.3981 192.286 67.8086 201.907 63.1221C202.612 62.7904 201.99 61.7121 201.285 62.0438C191.456 66.8132 183.369 74.6101 178.392 84.3147C178.019 85.0197 179.097 85.6833 179.471 84.9368Z" fill="#E8434B"/>
<path d="M68.0449 52.7526C69.5793 56.734 69.7452 60.8812 68.584 64.987C68.3766 65.775 69.5793 66.1068 69.7867 65.3188C71.0309 61.0056 70.8235 56.6095 69.2476 52.4208C68.9573 51.6743 67.7545 52.0061 68.0449 52.7526Z" fill="#E8434B"/>
<path d="M92.1486 43.1034C94.3467 45.7576 97.0839 47.9142 100.153 49.4487C100.858 49.8219 101.48 48.7436 100.775 48.3704C97.7474 46.8774 95.1346 44.8037 93.0195 42.191C92.5219 41.6103 91.6509 42.4813 92.1486 43.1034Z" fill="#E8434B"/>
<path d="M215.676 33.9519C217.543 36.0255 218.372 38.7212 217.916 41.4999C217.791 42.2879 218.994 42.6197 219.118 41.8317C219.658 38.5968 218.745 35.4864 216.547 33.081C216.008 32.4589 215.137 33.3298 215.676 33.9519Z" fill="#E8434B"/>
<path d="M227.149 31.0849C228.683 32.8268 230.176 34.5272 231.711 36.269C232.25 36.8911 233.121 35.9787 232.582 35.3981C231.047 33.6562 229.554 31.9559 228.02 30.214C227.522 29.5919 226.651 30.4629 227.149 31.0849Z" fill="#E8434B"/>
<path d="M165.826 41.8464C168.688 36.8282 172.462 32.4736 177.065 28.9899C177.687 28.4922 177.065 27.4139 176.443 27.9116C171.674 31.5612 167.734 35.9988 164.748 41.2243C164.375 41.9294 165.453 42.5515 165.826 41.8464Z" fill="#E8434B"/>
<path d="M21.4596 15.2808C22.0402 18.3083 22.7452 21.5017 23.6576 24.8196C26.6852 35.6439 30.9983 44.685 35.27 51.9012C36.5142 52.1916 38.2975 52.6063 40.4956 52.8551C43.5231 53.2284 48.4169 53.8505 53.9327 52.2745C55.2599 51.9012 54.6792 51.9427 60.5269 49.5373C66.3745 47.1319 66.7063 47.2148 68.9459 46.2195C72.7613 44.5606 76.2036 42.1552 82.9636 37.4687C84.9128 36.1001 87.6086 34.1924 90.7605 31.8284C90.9679 30.5013 91.2167 28.5521 91.1752 26.1882C91.0923 22.4556 90.3043 19.7599 89.1845 15.8615C87.4012 9.76496 86.157 5.61769 85.3691 3.00491C83.7931 2.00956 82.0927 1.01422 80.1435 0.10182C73.7152 -3.00863 67.6187 -4.25282 62.9323 -4.75049C58.1215 -4.37723 54.306 -3.50631 51.7347 -2.80127C40.4541 0.309183 32.6987 6.15684 27.8879 9.84791C25.0262 12.0045 22.8282 13.9537 21.4596 15.2808Z" fill="white"/>
<path d="M196.723 0.0603027C193.405 3.62696 189.88 7.89864 186.521 12.9168C184.862 15.4052 183.411 17.8106 182.125 20.1331C184.655 23.9071 187.185 27.6811 189.756 31.4137C195.438 33.6117 201.119 35.8098 206.801 38.0493C212.193 32.409 217.626 26.7687 223.017 21.087C221.607 16.525 220.197 12.0044 218.828 7.44244C216.05 6.03237 212.856 4.6223 209.207 3.33665C204.562 1.76068 200.373 0.723866 196.723 0.0603027Z" fill="white"/>
<path d="M21.0449 15.654C22.4549 29.0082 28.3441 41.1597 34.7309 52.8136C35.1041 53.5186 36.1824 52.8965 35.8091 52.1915C29.5468 40.7865 23.6576 28.8009 22.289 15.654C22.2061 14.866 20.9619 14.8245 21.0449 15.654Z" fill="#161616"/>
<path d="M22.2061 15.9859C32.3669 4.91267 46.3018 -2.26211 61.1905 -4.21132C61.9785 -4.29427 61.9785 -5.53845 61.1905 -5.45551C45.97 -3.46481 31.7034 3.75144 21.2937 15.0735C20.7961 15.6956 21.667 16.5665 22.2061 15.9859Z" fill="#161616"/>
<path d="M61.2734 -4.37742C68.0335 5.78339 71.1854 17.6031 74.2129 29.2569C74.4203 30.0449 75.623 29.7131 75.4156 28.9252C72.3466 17.1469 69.1532 5.24425 62.3517 -4.99952C61.8955 -5.66308 60.8172 -5.04099 61.2734 -4.37742Z" fill="#161616"/>
<path d="M36.1824 52.7722C43.772 50.4912 51.0712 47.4637 58.0386 43.6897C61.4808 41.8234 64.7986 39.7498 68.0335 37.5102C70.9366 35.5195 73.9641 33.4459 75.5401 30.211C75.9133 29.506 74.835 28.8839 74.4618 29.5889C72.7614 33.0312 69.2777 35.1878 66.2087 37.2614C63.1812 39.2936 60.0293 41.2013 56.7944 42.9432C50.1173 46.5098 43.1084 49.3714 35.8921 51.5695C35.1042 51.8183 35.4359 53.021 36.1824 52.7722Z" fill="#161616"/>
<path d="M61.9369 -4.29436C70.1485 -3.96257 78.0283 -1.22537 84.664 3.66841C85.3275 4.12461 85.9496 3.04632 85.2861 2.59011C78.4845 -2.42808 70.3974 -5.20676 61.9369 -5.53854C61.149 -5.58001 61.149 -4.33583 61.9369 -4.29436Z" fill="#161616"/>
<path d="M84.581 3.12924C88.355 11.797 90.3457 21.0869 90.3872 30.5842C90.3872 31.3722 91.6313 31.3722 91.6313 30.5842C91.5484 20.8796 89.5162 11.3823 85.6178 2.50715C85.3275 1.76064 84.2907 2.38274 84.581 3.12924Z" fill="#161616"/>
<path d="M74.752 30.3354C79.8947 33.6532 85.9911 32.7408 91.59 31.2478C92.3779 31.0404 92.0462 29.8377 91.2582 30.0451C85.9911 31.4552 80.2679 32.3676 75.4156 29.2571C74.7106 28.8424 74.0885 29.9207 74.752 30.3354Z" fill="#161616"/>
<path d="M35.5189 52.9795C42.901 54.6384 50.5735 54.0992 57.6238 51.3206C58.3703 51.0303 58.0385 49.8275 57.292 50.1179C50.449 52.8136 43.0254 53.4357 35.8506 51.7768C35.0627 51.6109 34.7309 52.8136 35.5189 52.9795Z" fill="#161616"/>
<path d="M57.9555 51.2375C70.2729 46.5926 81.7194 39.9155 91.7558 31.3721C92.3779 30.833 91.4655 29.962 90.8849 30.5012C81.0144 38.8787 69.7752 45.4728 57.6652 50.0348C56.8772 50.3251 57.209 51.5279 57.9555 51.2375Z" fill="#161616"/>
<path d="M195.769 -0.0641269C190.502 6.15678 185.692 12.7509 181.378 19.6354C180.964 20.299 182.042 20.9211 182.457 20.2575C186.728 13.456 191.498 6.94476 196.64 0.8068C197.179 0.226182 196.309 -0.686218 195.769 -0.0641269Z" fill="#161616"/>
<path d="M196.35 1.01421C203.815 2.21692 210.99 4.58087 217.667 8.0231C218.372 8.39635 218.994 7.31806 218.289 6.94481C211.488 3.41963 204.23 1.05568 196.64 -0.188497C195.894 -0.312915 195.562 0.889794 196.35 1.01421Z" fill="#161616"/>
<path d="M181.42 20.9625C187.89 23.907 194.276 26.976 200.622 30.2109C201.327 30.5841 201.949 29.5058 201.244 29.1326C194.899 25.9392 188.512 22.8702 182.042 19.8842C181.295 19.5524 180.673 20.6307 181.42 20.9625Z" fill="#161616"/>
<path d="M217.999 7.44244C212.441 14.8661 207.05 22.4141 201.824 30.0865C202.115 30.0036 202.405 29.9207 202.695 29.8792C202.239 29.6303 201.783 29.34 201.285 29.0912C200.58 28.6765 199.958 29.7548 200.663 30.1695C201.119 30.4183 201.576 30.7086 202.073 30.9575C202.364 31.1234 202.737 30.9989 202.944 30.7501C208.128 23.0777 213.52 15.4881 219.119 8.106C219.533 7.44244 218.455 6.82035 217.999 7.44244Z" fill="#161616"/>
<path d="M217.874 8.14756C219.741 12.5022 221.109 16.9813 222.022 21.6262C222.188 22.4142 223.39 22.0824 223.224 21.2944C222.312 16.5665 220.86 11.9631 218.953 7.52547C218.662 6.82044 217.584 7.44253 217.874 8.14756Z" fill="#161616"/>
<path d="M202.239 31.0404C203.857 33.197 205.267 35.4365 206.511 37.8419C206.884 38.547 207.962 37.9249 207.589 37.2198C206.345 34.8144 204.935 32.5749 203.317 30.4183C202.861 29.7962 201.783 30.4183 202.239 31.0404Z" fill="#161616"/>
<path d="M207.589 37.7589C212.981 32.7822 218.04 27.5566 222.851 22.0408C223.39 21.4187 222.478 20.5477 221.98 21.1698C217.169 26.6857 212.11 31.9527 206.718 36.888C206.138 37.4271 207.009 38.2981 207.589 37.7589Z" fill="#161616"/>
<path d="M181.544 21.2942C184.199 24.7364 186.853 28.2202 189.507 31.6624C190.005 32.2845 191.083 31.6624 190.585 31.0403C187.931 27.5981 185.277 24.1144 182.623 20.6721C182.125 20.05 181.047 20.6307 181.544 21.2942Z" fill="#161616"/>
<path d="M189.756 32.1189C195.313 34.234 200.87 36.3491 206.428 38.4642C207.174 38.7545 207.506 37.5518 206.76 37.2615C201.202 35.1464 195.645 33.0313 190.088 30.9162C189.341 30.6259 189.009 31.8286 189.756 32.1189Z" fill="#161616"/>
<path d="M34.1502 4.45627C39.4172 18.3911 44.7257 32.3259 49.9928 46.3022C53.9327 47.422 57.9141 48.5003 61.854 49.6201C64.7985 48.2929 67.7431 46.9243 70.6877 45.5972C67.3284 44.1457 63.9691 42.6941 60.6098 41.2426C55.2183 27.1418 49.8269 12.9996 44.4354 -1.10107C42.9424 -0.437511 41.3665 0.308998 39.749 1.17993C37.6339 2.21674 35.8091 3.37798 34.1502 4.45627Z" fill="#E8434B"/>
<path d="M72.0978 -3.75513C75.4986 2.38283 79.1897 10.9677 80.7242 21.6262C81.2218 25.1099 81.4292 28.4277 81.4292 31.4137C74.835 36.4734 66.7893 41.8234 57.1262 46.8001C51.7347 49.5788 46.5092 51.9013 41.6569 53.809C44.3526 53.809 47.0483 53.809 49.744 53.809C55.5087 51.4036 61.8955 48.3761 68.6556 44.5191C75.9963 40.3304 82.3001 35.9757 87.5672 31.9114C86.5718 26.9347 85.4935 21.8335 84.3323 16.6909C83.0466 11.0092 81.7195 5.49329 80.3924 0.0603626C79.6459 -0.686146 78.4017 -1.72296 76.6184 -2.55242C74.7936 -3.38187 73.1761 -3.67218 72.0978 -3.75513Z" fill="#E8434B"/>
<path d="M39.1684 1.3044C38.256 0.557893 39.4587 -3.92116 42.7765 -5.33123C45.3064 -6.40952 48.5827 -5.5386 50.8637 -3.05023C49.5781 -2.67698 47.6289 -2.09636 45.3064 -1.14249C41.1591 0.557893 39.7905 1.80207 39.1684 1.3044Z" fill="#E8434B"/>
<path d="M23.6991 -14.082C25.7727 -14.4137 26.934 -10.7227 31.2471 -7.07308C35.1041 -3.83821 39.4173 -2.38666 42.7766 -1.64015C41.3665 -0.561862 38.7122 1.22146 35.0212 1.67766C29.6712 2.34123 22.372 0.309065 20.6301 -4.79208C19.3445 -8.64904 21.3766 -13.7502 23.6991 -14.082Z" fill="#E8434B"/>
<path d="M204.354 1.63623C199.004 8.76954 193.613 15.9028 188.263 23.0361C190.171 26.5199 192.078 30.0036 194.028 33.4873C195.686 34.1508 197.345 34.8559 199.004 35.5194C197.802 32.6163 196.599 29.6718 195.355 26.7687C200.124 18.9304 204.935 11.1335 209.704 3.29514C207.921 2.75599 206.138 2.21685 204.354 1.63623Z" fill="#E8434B"/>
<path d="M220.611 13.1655C215.137 19.262 209.621 25.317 204.147 31.4135C197.76 29.5473 191.373 27.681 184.986 25.8147C186.065 27.1833 187.143 28.5519 188.221 29.9205C194.235 31.9112 200.207 33.9019 206.22 35.8926C211.405 30.0449 216.547 24.2387 221.731 18.3911C221.399 16.6492 221.026 14.9074 220.611 13.1655Z" fill="#E8434B"/>
<path d="M209.704 3.12928C209.912 2.25835 212.981 1.38742 215.054 2.96339C216.381 3.95873 217.169 5.90795 216.589 6.48857C215.51 7.56686 209.414 4.45641 209.704 3.12928Z" fill="#E8434B"/>
<path d="M206.469 -10.2664C207.382 -10.7641 209.207 -9.18811 209.704 -8.77339C210.202 -8.35866 211.944 -6.7827 213.146 -2.26217C213.769 0.0188293 214.681 3.41959 213.727 3.87579C212.649 4.41494 209.372 1.01417 207.589 -2.63542C206.221 -5.53851 205.267 -9.60284 206.469 -10.2664Z" fill="#E8434B"/>
<path d="M230.523 4.45627C230.606 3.46092 228.367 2.67294 227.745 2.46558C227.164 2.25822 224.966 1.55318 220.28 2.59C217.916 3.12914 214.432 3.91712 214.391 4.91247C214.349 6.07371 218.911 7.19347 223.017 6.9861C226.293 6.82021 230.399 5.74192 230.523 4.45627Z" fill="#E8434B"/>
<path opacity="0.09" d="M35.8505 52.6063C38.2974 51.7354 41.9055 50.4497 46.2187 48.6249C53.5594 45.556 58.7435 43.3994 64.5082 39.5009C67.3698 37.5517 71.2267 34.5657 75.3325 30.2111C77.3647 26.1467 79.8531 20.0917 80.8069 12.3778C81.3876 7.69138 81.3046 3.5441 80.9728 0.184814C82.4659 1.05574 83.9174 1.92667 85.4104 2.75612C86.9034 6.65456 88.4379 11.4239 89.5162 16.9398C90.5945 22.2898 91.0507 27.1421 91.1751 31.2479C86.6961 35.1463 82.7147 38.0494 79.7287 40.0816C65.3376 49.9106 55.4256 52.2331 53.2276 52.7307C49.8268 53.4773 47.214 53.6017 46.0528 53.6431C41.6982 53.809 38.173 53.1455 35.8505 52.6063Z" fill="#353535"/>
<path opacity="0.09" d="M182.249 20.2991C184.904 24.0731 187.516 27.8471 190.171 31.5797C195.686 33.7363 201.244 35.8514 206.76 38.008C212.027 32.2847 217.294 26.603 222.561 20.8797C221.275 16.4836 219.948 12.0875 218.662 7.69141C213.271 14.9906 207.879 22.2898 202.488 29.589C195.728 26.52 188.968 23.4096 182.249 20.2991Z" fill="#353535"/>
<path d="M184.613 63.9516C183.659 64.0346 182.996 61.2144 181.959 61.2559C181.129 61.2974 180.549 63.1637 180.507 63.4125C180.01 65.1129 180.259 66.8547 181.959 71.4167C182.457 72.7439 183.12 74.4442 183.991 76.3935C183.535 79.6283 182.705 84.1074 181.212 89.3744C179.346 95.8856 176.194 106.586 167.858 117.617C165.287 121.018 161.43 125.539 155.831 130.184C153.965 134.663 153.716 138.395 153.799 140.718C153.84 142.086 154.006 148.266 156.287 148.846C157.822 149.22 159.647 146.98 160.559 145.86C169.849 134.123 174.535 128.276 176.402 124.875C180.756 117.078 184.281 110.733 187.267 101.194C189.465 94.2267 190.502 88.1302 191.083 83.6512C192.037 82.0752 193.364 79.8357 194.898 77.0985C199.087 69.6334 200.58 66.2741 201.493 62.5416C202.446 58.6846 202.612 55.3668 201.658 54.9935C200.953 54.7447 200.082 56.0304 199.295 55.6986C198.133 55.2009 199.377 51.7587 198.133 51.0122C197.677 50.7218 196.765 50.7633 194.898 52.0075C193.613 49.3118 192.783 48.8141 192.244 48.8556C191.124 49.0215 190.585 52.0904 190.336 55.5742C190.005 53.8738 189.175 50.3071 188.138 50.3071C187.267 50.3071 186.355 52.9199 186.106 54.9935C185.733 57.8552 186.562 59.9288 185.526 62.8319C185.318 63.2466 185.028 63.8687 184.613 63.9516Z" fill="white"/>
<path d="M183.162 75.8542C183.037 81.3286 181.295 86.5956 179.636 91.7797C178.019 96.6735 176.194 101.526 173.955 106.171C169.807 114.797 164.209 122.677 156.868 128.856C156.246 129.354 157.158 130.266 157.739 129.727C165.37 123.34 171.093 115.087 175.323 106.129C177.521 101.484 179.346 96.6735 180.922 91.7797C182.581 86.6371 184.281 81.3701 184.364 75.8957C184.447 75.0662 183.203 75.0662 183.162 75.8542Z" fill="#161616"/>
<path d="M190.544 83.0705C189.424 96.1759 183.701 108.493 177.895 120.106C172.586 130.723 166.158 141.049 156.578 148.307C155.956 148.805 156.578 149.883 157.2 149.385C166.987 141.962 173.581 131.552 178.973 120.728C184.903 108.908 190.627 96.3832 191.788 83.0705C191.829 82.2825 190.585 82.2825 190.544 83.0705Z" fill="#161616"/>
<path d="M184.198 75.1906C182.788 72.1631 181.461 68.6379 181.254 65.2786C181.212 64.8224 181.13 62.8732 181.461 62.6244C182.498 61.9193 182.788 63.122 183.037 63.6197C183.493 64.4906 183.825 65.1127 184.696 65.6104C185.401 65.9836 186.023 64.9468 185.318 64.5321C183.867 63.7026 183.991 61.4216 182.332 60.7996C180.922 60.2604 180.424 61.4216 180.134 62.6244C179.139 66.896 181.295 71.9972 183.037 75.8127C183.493 76.5592 184.53 75.8956 184.198 75.1906Z" fill="#161616"/>
<path d="M185.609 65.2372C187.019 62.0023 186.687 58.6845 186.811 55.2423C186.853 54.4543 186.687 52.6295 187.143 52.0074C187.972 50.9706 188.595 53.1686 188.802 53.8737C189.383 56.1132 189.507 58.3527 189.341 60.6337C189.258 61.4217 190.502 61.4217 190.585 60.6337C190.71 59.0578 190.544 48.0675 187.019 49.8508C185.567 50.5973 185.65 53.5419 185.609 54.8275C185.484 58.1039 185.94 61.4632 184.572 64.5736C184.24 65.3201 185.318 65.9837 185.609 65.2372Z" fill="#161616"/>
<path d="M190.71 60.7167C190.959 59.2236 191.166 57.7306 191.29 56.1961C191.415 54.4957 191.166 52.588 191.705 50.9706C192.161 49.4775 192.41 49.1872 193.032 50.5144C193.488 51.4682 193.654 52.4636 193.779 53.4589C193.986 55.3252 194.152 57.5233 193.571 59.3481C193.322 60.136 194.525 60.4263 194.774 59.6798C195.438 57.4818 195.272 54.7861 194.898 52.5465C194.691 51.3438 194.028 48.1919 192.41 48.1919C191 48.1919 190.419 50.5558 190.295 51.5512C189.88 54.4543 189.963 57.4403 189.507 60.3434C189.383 61.1729 190.585 61.5046 190.71 60.7167Z" fill="#161616"/>
<path d="M195.23 59.6384C195.396 58.3527 195.396 57.0256 195.396 55.74C195.438 54.6202 195.355 51.6342 196.765 51.7586C197.801 51.8415 197.719 52.7125 197.801 53.6249C197.843 54.2469 197.843 54.9105 197.843 55.5326C197.843 57.0671 197.76 58.5601 197.47 60.0946C197.304 60.8826 198.506 61.2144 198.672 60.4264C199.087 58.3942 200.497 50.0582 196.765 49.9753C193.322 49.8923 194.235 57.7721 193.986 59.6799C193.903 60.4264 195.147 60.4264 195.23 59.6384Z" fill="#161616"/>
<path d="M199.668 55.9889C200.165 55.9475 200.622 55.906 201.119 55.8645C201.202 56.2378 201.285 56.611 201.327 57.0258C201.41 57.7723 201.451 58.4773 201.451 59.2238C201.41 60.5509 201.202 61.9195 200.829 63.2052C200.165 65.735 199.046 68.1405 197.802 70.4629C195.521 74.7761 193.074 79.0478 190.71 83.3195C190.336 84.0245 191.415 84.6466 191.788 83.9416C193.779 80.3334 195.811 76.7253 197.802 73.1172C199.668 69.7579 201.534 66.2327 202.322 62.4172C202.737 60.3436 203.608 55.5742 201.451 54.1227C200.083 53.1688 198.299 54.4545 198.465 56.0304C198.507 56.7769 199.751 56.7769 199.668 55.9889Z" fill="#161616"/>
<path opacity="0.08" d="M197.553 51.3024C196.931 51.3438 196.765 53.9152 196.35 56.9841C195.686 62.3756 194.94 68.4306 192.369 73.4903C191.539 75.1492 190.046 77.5961 187.35 80.2503C186.936 83.1949 186.148 87.4251 184.821 92.4018C182.498 101.111 179.097 113.47 169.476 125.041C166.863 128.151 162.84 132.464 156.909 136.653C156.744 140.718 156.578 144.74 156.37 148.805C158.942 146.856 162.674 143.745 166.531 139.307C171.591 133.46 174.867 126.824 181.212 113.802C186.272 103.392 187.641 99.3692 188.47 96.4662C190.046 91.1576 190.834 86.5542 191.249 83.2364C194.069 78.7988 196.143 74.8589 197.594 71.7484C200.124 66.357 204.188 57.6477 201.7 55.4911C200.995 54.9105 199.958 54.952 199.17 55.0764C198.797 53.3345 198.133 51.2609 197.553 51.3024Z" fill="#353535"/>
<path opacity="0.1" d="M195.977 75.6055C193.779 77.9279 191.581 80.2919 189.383 82.6144C189.175 84.605 188.802 87.5496 187.931 91.0748C186.272 97.7104 183.867 102.355 182.913 104.305C180.466 109.198 177.273 116.663 174.204 127.82C175.572 125.456 182.83 112.848 186.894 102.065C188.429 97.9178 189.258 95.7612 189.922 92.4019C190.751 88.3791 190.544 86.5128 191.622 83.2779C192.825 79.7527 194.65 77.1814 195.977 75.6055Z" fill="#353535"/>
<path d="M80.7655 54.869C79.4384 55.2423 79.3969 58.8504 79.6043 60.8826C79.936 64.4907 81.3461 67.1864 81.9682 68.3477C84.6225 73.2414 87.1938 77.8449 89.8065 82.2825C90.1383 85.2685 90.7189 89.3329 91.8802 94.0607C93.9123 102.355 96.5251 107.996 100.133 115.751C105.856 127.985 109.257 134.994 116.515 142.459C119.252 145.238 121.741 147.312 123.441 148.639C124.063 147.934 127.878 143.538 127.132 137.275C126.551 132.174 123.316 129.064 122.404 128.234C120.413 126.575 117.386 123.88 114.275 120.064C107.723 111.935 104.986 103.807 101.004 91.6139C99.9259 88.296 98.4743 83.6096 97.0228 77.8449C97.8108 75.2736 98.4743 73.2414 98.9305 71.9558C100.299 68.0159 101.17 66.0252 100.548 63.4954C100.382 62.8318 100.05 61.5876 99.2208 61.3388C98.267 61.0899 96.8154 62.2512 95.6957 64.3663C95.0736 60.9655 94.7833 58.1454 94.6589 56.0303C94.493 52.9613 94.5759 50.7218 93.9123 50.5559C93.2073 50.39 92.129 52.8783 92.0046 53.1272C90.9678 55.4496 90.9678 57.6477 91.1337 59.0163C91.4655 51.3024 90.5945 49.3532 89.6407 49.1043C88.8527 48.897 87.8573 49.9338 87.567 50.2656C85.6178 52.3392 86.6131 55.3667 86.6961 55.5741C85.8252 50.9706 84.9128 50.6803 84.6225 50.6803C83.8759 50.6388 83.1294 52.2977 82.8391 53.2516C82.5073 54.4128 82.7147 55.4496 82.8391 55.9888C82.1756 55.3667 81.3876 54.7031 80.7655 54.869Z" fill="white"/>
<path d="M96.6496 75.9371C96.774 81.2456 98.3085 86.3882 99.8844 91.4479C101.46 96.4661 103.244 101.401 105.442 106.171C109.548 115.087 115.105 123.34 122.529 129.769C123.151 130.308 124.022 129.395 123.399 128.898C116.225 122.677 110.833 114.797 106.81 106.212C104.612 101.567 102.829 96.7149 101.295 91.8211C99.6356 86.6371 97.9767 81.37 97.8523 75.8956C97.8523 75.1491 96.6081 75.1491 96.6496 75.9371Z" fill="#161616"/>
<path d="M89.5162 83.1948C90.5945 96.3002 96.0689 108.618 101.709 120.354C106.935 131.262 113.363 141.879 122.985 149.427C123.607 149.924 124.478 149.053 123.856 148.556C114.441 141.215 108.22 130.93 103.036 120.354C97.3546 108.659 91.7972 96.3002 90.7189 83.2363C90.6775 82.4068 89.4333 82.4068 89.5162 83.1948Z" fill="#161616"/>
<path d="M97.9352 75.9371C99.677 72.0387 101.875 66.7716 100.672 62.417C100.382 61.3387 99.8429 60.4678 98.5987 60.9654C96.9813 61.5875 97.1472 63.8685 95.6956 64.698C94.9906 65.1127 95.6127 66.191 96.3177 65.7763C96.9813 65.403 97.3545 64.9054 97.7278 64.2418C97.8937 63.91 98.0596 63.1635 98.3499 62.9147C99.9673 61.712 99.677 64.3247 99.677 65.0712C99.5941 68.555 98.2255 72.2046 96.8154 75.3565C96.5251 76.02 97.6034 76.6421 97.9352 75.9371Z" fill="#161616"/>
<path d="M96.5251 64.698C95.2395 61.712 95.6127 58.4771 95.5298 55.3252C95.4883 53.998 95.6542 50.7632 94.1197 49.9752C90.6775 48.1919 90.4701 59.2236 90.5945 60.7581C90.6775 61.5461 91.9217 61.5461 91.8387 60.7581C91.6728 58.6015 91.7558 56.4449 92.2535 54.3298C92.3779 53.7907 92.8341 51.3023 93.8709 51.7585C94.3271 51.9659 94.2856 54.8275 94.2856 55.3252C94.3686 58.7674 94.0783 62.0852 95.4469 65.3201C95.7786 66.0666 96.8569 65.4445 96.5251 64.698Z" fill="#161616"/>
<path d="M91.7143 60.4679C91.2581 57.5648 91.3411 54.6202 90.9263 51.7586C90.8019 50.7218 90.2628 48.3578 88.8112 48.3163C87.3182 48.2749 86.6546 51.2609 86.4473 52.3392C85.9911 54.7031 85.8252 57.4818 86.4887 59.8043C86.6961 60.5508 87.8988 60.2605 87.6915 59.4725C87.1938 57.8136 87.3182 55.9059 87.4426 54.164C87.5256 53.1272 87.6915 52.0489 88.0647 51.0535C88.6868 49.4776 88.9356 49.1458 89.5163 51.0535C89.9725 52.588 89.7651 54.3714 89.8895 55.9473C90.0139 57.5648 90.2213 59.1822 90.5116 60.7996C90.636 61.5876 91.8387 61.2558 91.7143 60.4679Z" fill="#161616"/>
<path d="M87.3597 59.7212C87.1109 57.8549 88.0233 49.8922 84.6225 50.0166C80.9729 50.141 82.383 58.477 82.7563 60.4677C82.9222 61.2557 84.1249 60.9239 83.959 60.1359C83.6687 58.6429 83.5857 57.1084 83.5857 55.5739C83.5857 54.4542 83.2539 51.9243 84.5811 51.7999C85.9497 51.6755 85.8667 54.703 85.9082 55.7813C85.9497 57.1084 85.9082 58.3941 86.0741 59.6797C86.1985 60.5092 87.4842 60.5506 87.3597 59.7212Z" fill="#161616"/>
<path d="M83.088 56.0718C83.2539 54.5373 81.5535 53.2101 80.1849 54.164C78.1527 55.5741 78.8992 60.0946 79.2725 62.0853C79.936 65.7764 81.595 69.1771 83.3783 72.495C85.4104 76.3519 87.5256 80.1674 89.5577 83.9829C89.931 84.6879 91.0093 84.0659 90.636 83.3608C88.2721 78.9647 85.8252 74.6101 83.5442 70.1725C82.4244 67.9744 81.3876 65.6934 80.807 63.2465C80.4752 61.9609 80.2678 60.6338 80.2264 59.2652C80.2264 58.7675 80.2264 58.2698 80.2678 57.7307C80.2678 57.1915 80.3508 56.6524 80.4752 56.1547C80.5167 55.5326 81.0143 55.4911 81.8853 56.0303C81.7608 56.8597 83.005 56.8597 83.088 56.0718Z" fill="#161616"/>
<path opacity="0.09" d="M84.9543 51.0534C86.1155 51.4682 85.2861 56.4449 85.0787 58.3112C84.6225 62.5829 85.5764 69.0526 92.3365 78.2595C94.1198 87.1347 97.5205 99.2447 104.488 112.35C110.377 123.465 117.054 131.925 122.612 137.98C123.026 141.63 123.4 145.279 123.814 148.971C121.243 147.187 117.676 144.367 114.151 140.261C111.082 136.653 109.257 133.501 106.603 128.483C99.7601 115.502 96.3178 108.991 93.9124 101.111C92.5853 96.7978 91.0093 90.5769 90.0969 82.863C86.8206 78.6328 84.5811 74.7344 83.088 71.7483C80.1849 65.9836 79.4384 62.334 79.5214 59.0577C79.6043 55.3251 80.2679 54.8275 80.5582 54.703C81.1803 54.4542 82.0097 54.9519 82.5489 55.3666C82.5074 55.1592 82.0927 53.293 83.3369 51.9244C83.5442 51.7585 84.3737 50.8461 84.9543 51.0534Z" fill="#353535"/>
<path opacity="0.09" d="M81.6365 65.8592C82.0512 65.6519 84.5811 69.2185 86.4059 72.2045C90.6776 79.2134 92.4194 85.4758 92.8756 87.0103C95.6128 96.5076 99.138 104.553 106.23 120.603C108.386 125.456 111.663 132.506 116.266 140.842C114.939 139.598 113.031 137.731 110.999 135.285C109.216 133.169 103.368 125.995 97.2717 109.53C94.9078 103.102 92.1291 94.4339 90.1384 83.7754C88.7283 81.37 86.7791 77.9278 84.7055 73.6146C83.7931 71.6654 81.1803 66.1081 81.6365 65.8592Z" fill="#353535"/>
<path d="M140.528 124.626C139.076 124.502 136.505 124.294 133.146 124.626C129.247 125.041 125.763 125.372 123.151 127.653C121.201 129.354 120.621 131.469 119.543 135.658C118.92 138.105 118.091 141.422 118.174 145.901C118.34 154.196 121.492 155.274 123.151 165.311C123.98 170.163 123.897 173.937 123.856 178.458C123.773 184.471 123.151 189.572 122.487 193.512C124.27 194.922 127.008 196.83 130.74 198.323C133.021 199.235 139.491 201.682 147.785 200.231C156.495 198.738 161.845 193.844 163.628 192.061C160.725 184.222 160.435 177.918 160.684 173.647C161.015 168.463 162.094 167.343 163.628 156.187C164.789 147.892 164.748 144.45 164.665 142.584C164.375 135.119 164.209 131.345 161.72 128.815C159.273 126.326 153.011 125.746 140.528 124.626Z" fill="white"/>
<path d="M138.454 124.336C135.385 124.128 132.316 124.294 129.289 124.833C126.717 125.29 124.063 125.746 122.363 127.861C119.252 131.676 117.925 136.943 117.676 141.754C117.054 154.03 123.151 165.228 125.224 177.089C125.349 177.877 126.551 177.545 126.427 176.757C124.561 166.057 119.418 156.062 118.92 145.113C118.713 140.095 119.46 134.953 122.031 130.557C122.902 129.064 123.856 127.612 125.556 126.99C126.717 126.575 128.003 126.326 129.206 126.078C132.233 125.497 135.344 125.372 138.413 125.538C139.242 125.621 139.242 124.377 138.454 124.336Z" fill="#161616"/>
<path d="M143.555 125.455C149.113 125.124 155.956 125.787 160.683 129.105C163.545 131.137 163.67 134.538 163.96 137.731C164.25 140.593 164.375 143.455 164.167 146.358C163.338 157.68 158.776 168.421 158.817 179.868C158.817 180.656 160.061 180.656 160.061 179.868C160.02 166.97 165.909 154.818 165.494 141.879C165.328 136.943 165.494 130.598 160.766 127.695C155.831 124.668 149.237 123.88 143.555 124.211C142.726 124.253 142.726 125.497 143.555 125.455Z" fill="#161616"/>
<path opacity="0.11" d="M153.426 125.165C154.711 128.275 156.37 132.962 157.2 138.81C158.817 150.546 156.08 159.546 152.804 169.956C150.357 177.711 146.251 188.411 139.035 200.397C141.316 200.604 144.136 200.604 147.288 200.023C155.499 198.53 160.974 194.051 163.421 191.77C163.13 189.697 162.633 186.462 161.928 182.563C160.808 176.467 160.435 176.011 160.31 173.813C160.144 171.117 160.601 171.449 163.047 160.044C164.001 155.565 164.706 151.5 165.121 146.192C165.163 145.736 165.163 145.279 165.204 144.823C165.411 137.98 165.494 133.791 162.591 130.225C159.813 126.824 155.79 125.621 153.426 125.165Z" fill="#353535"/>
<path opacity="0.08" d="M165.411 145.03C165.121 144.948 163.67 147.229 160.269 156.311C156.536 166.306 151.933 180.697 148.366 199.318C150.191 199.069 152.721 198.53 155.499 197.286C159.232 195.586 161.72 193.305 163.13 191.77C161.886 187.416 160.476 180.946 160.518 173.066C160.559 157.555 166.075 145.238 165.411 145.03Z" fill="#353535"/>
<path d="M125.556 94.4339C123.939 97.7517 124.395 101.111 124.768 102.687C124.602 102.687 122.653 102.604 121.616 104.014C120.372 105.673 121.533 107.747 121.741 108.078C122.031 108.576 122.404 109.281 123.192 109.488C124.436 109.862 125.597 108.783 125.68 108.7C126.303 110.276 127.339 112.267 128.957 114.299C131.445 117.451 134.224 119.318 136.09 120.354C136.173 122.345 136.256 124.294 136.297 126.285C136.754 126.7 137.708 127.446 139.118 127.695C141.896 128.234 144.053 126.409 144.302 126.161C144.26 123.672 144.219 121.184 144.177 118.695C145.256 117.866 146.5 116.705 147.702 115.17C150.108 112.018 150.979 108.825 151.311 106.917C151.767 107.083 152.513 107.249 153.467 107.249C154.38 107.249 155.541 107.207 156.08 106.461C156.661 105.632 156.038 104.429 155.416 103.143C154.794 101.94 154.338 101.775 154.172 101.733C153.467 101.526 152.804 101.94 152.596 102.065C152.762 100.738 152.845 98.2494 151.808 95.4707C151.518 94.6827 149.859 90.4525 145.836 88.213C139.242 84.6463 128.874 87.6738 125.556 94.4339Z" fill="white"/>
<path d="M124.809 94.517C122.363 105.258 126.344 119.11 138.537 121.433C139.325 121.599 139.657 120.396 138.869 120.23C127.339 118.032 123.731 104.968 126.012 94.8487C126.178 94.0608 124.975 93.729 124.809 94.517Z" fill="#161616"/>
<path d="M138.703 121.391C140.403 121.889 142.726 120.272 144.094 119.359C145.919 118.156 147.537 116.622 148.822 114.839C152.016 110.567 153.218 105.175 152.721 99.9499C152.638 99.1619 151.393 99.1619 151.476 99.9499C151.933 104.47 151.103 109.074 148.656 112.931C147.619 114.548 146.334 116 144.841 117.244C143.638 118.239 140.694 120.645 139.035 120.189C138.247 119.981 137.915 121.184 138.703 121.391Z" fill="#161616"/>
<path d="M135.053 120.396C135.675 122.096 135.841 123.879 135.551 125.663C135.427 126.451 136.629 126.783 136.754 125.995C137.085 123.962 136.961 122.013 136.256 120.064C136.007 119.317 134.804 119.608 135.053 120.396Z" fill="#161616"/>
<path d="M143.638 118.986C143.431 121.101 143.597 123.175 144.136 125.248C144.343 126.036 145.546 125.704 145.338 124.916C144.841 122.967 144.716 120.976 144.882 118.986C144.965 118.198 143.721 118.198 143.638 118.986Z" fill="#161616"/>
<path d="M135.592 126.451C138.454 129.644 144.426 129.561 145.463 124.709C145.629 123.921 144.426 123.589 144.26 124.377C143.389 128.317 138.744 128.068 136.463 125.58C135.924 124.999 135.053 125.87 135.592 126.451Z" fill="#161616"/>
<path d="M135.841 121.225C138.247 123.423 142.021 122.926 143.555 119.981C143.928 119.276 142.85 118.654 142.477 119.359C141.316 121.557 138.537 122.055 136.712 120.354C136.132 119.815 135.261 120.686 135.841 121.225Z" fill="#161616"/>
<path d="M138.33 122.138C138.91 122.096 139.449 122.138 139.988 122.304C140.776 122.511 141.108 121.308 140.32 121.101C139.657 120.935 138.993 120.852 138.33 120.894C137.542 120.935 137.542 122.179 138.33 122.138Z" fill="#161616"/>
<path d="M124.934 108.825C123.234 110.194 121.741 108.286 121.575 106.668C121.367 105.092 122.736 103.143 124.478 104.222C125.141 104.636 125.763 103.558 125.1 103.143C122.529 101.526 120.04 104.263 120.33 106.834C120.662 109.571 123.358 111.687 125.805 109.696C126.427 109.198 125.556 108.327 124.934 108.825Z" fill="#161616"/>
<path d="M152.928 102.77C154.255 101.526 155.541 103.89 155.499 104.968C155.499 105.632 155.168 106.295 154.587 106.669C154.131 106.959 153.052 107.332 152.679 106.752C152.264 106.088 151.186 106.71 151.601 107.374C152.223 108.41 153.633 108.452 154.67 108.037C155.873 107.54 156.661 106.42 156.702 105.134C156.826 102.853 154.214 99.8256 152.016 101.899C151.476 102.438 152.347 103.351 152.928 102.77Z" fill="#161616"/>
<path d="M136.256 94.3925C136.588 97.2956 136.422 100.033 136.132 102.936C135.966 104.885 137.003 105.715 138.537 106.959C139.159 107.456 140.03 106.585 139.408 106.088C138.33 105.175 137.376 104.553 137.417 102.894C137.417 102.106 137.625 101.235 137.708 100.448C137.874 98.4154 137.791 96.3832 137.542 94.3925C137.417 93.6045 136.173 93.6045 136.256 94.3925Z" fill="#161616"/>
<path d="M129.33 100.282C129.289 99.3692 130.616 98.7885 131.362 98.83C132.233 98.83 132.689 99.535 133.146 100.199C133.602 100.862 134.68 100.24 134.224 99.5765C133.394 98.3738 132.441 97.3785 130.865 97.6273C129.537 97.8761 128.003 98.83 128.044 100.323C128.086 101.111 129.33 101.111 129.33 100.282Z" fill="#161616"/>
<path d="M143.555 99.1618C144.675 97.0466 147.702 97.3784 148.242 99.7424C148.407 100.53 149.61 100.199 149.444 99.4106C148.698 96.0098 144.094 95.4707 142.477 98.4982C142.145 99.2032 143.182 99.8668 143.555 99.1618Z" fill="#161616"/>
<path d="M128.127 95.8854C128.832 94.8071 130.035 94.102 131.321 93.9361C132.109 93.8532 132.109 92.609 131.321 92.692C129.537 92.8993 128.044 93.7702 127.049 95.2633C126.593 95.9268 127.671 96.5489 128.127 95.8854Z" fill="#161616"/>
<path d="M143.555 93.563C145.048 93.4801 146.417 93.9363 147.495 94.9316C148.076 95.4708 148.988 94.5999 148.366 94.0607C147.039 92.858 145.338 92.2359 143.514 92.3189C142.726 92.3603 142.726 93.6045 143.555 93.563Z" fill="#161616"/>
<path d="M129.662 103.475C129.662 103.434 129.662 103.434 129.662 103.392C129.662 103.06 129.372 102.77 129.04 102.77C128.708 102.77 128.418 103.06 128.418 103.392C128.418 103.434 128.418 103.434 128.418 103.475C128.418 103.807 128.708 104.097 129.04 104.097C129.372 104.097 129.662 103.848 129.662 103.475Z" fill="#161616"/>
<path d="M131.569 103.185C131.611 103.185 131.652 103.185 131.652 103.185C131.984 103.185 132.275 102.894 132.275 102.563C132.275 102.231 131.984 101.94 131.652 101.94C131.611 101.94 131.569 101.94 131.569 101.94C131.238 101.94 130.947 102.231 130.947 102.563C130.989 102.894 131.238 103.185 131.569 103.185Z" fill="#161616"/>
<path d="M131.487 105.922C131.528 105.922 131.569 105.922 131.569 105.922C131.901 105.922 132.192 105.632 132.192 105.3C132.192 104.968 131.901 104.678 131.569 104.678C131.528 104.678 131.487 104.678 131.487 104.678C131.155 104.678 130.864 104.968 130.864 105.3C130.864 105.632 131.155 105.922 131.487 105.922Z" fill="#161616"/>
<path d="M144.924 102.272C144.965 102.272 145.007 102.272 145.007 102.272C145.339 102.272 145.629 101.982 145.629 101.65C145.629 101.318 145.339 101.028 145.007 101.028C144.965 101.028 144.924 101.028 144.924 101.028C144.592 101.028 144.302 101.318 144.302 101.65C144.343 101.982 144.592 102.272 144.924 102.272Z" fill="#161616"/>
<path d="M148.573 102.189C149.361 102.189 149.361 100.945 148.573 100.945C147.785 100.945 147.785 102.189 148.573 102.189Z" fill="#161616"/>
<path d="M147.205 104.18C147.993 104.18 147.993 102.936 147.205 102.936C146.375 102.936 146.375 104.18 147.205 104.18Z" fill="#161616"/>
<path d="M133.477 109.613C136.007 114.175 142.643 113.511 144.26 108.576C144.509 107.83 143.306 107.498 143.057 108.244C141.772 112.226 136.546 112.557 134.556 108.991C134.182 108.286 133.104 108.908 133.477 109.613Z" fill="#161616"/>
<path d="M118.672 99.4523C117.137 101.733 114.939 105.673 114.068 110.94C113.446 114.714 112.368 121.308 116.515 126.534C117.635 127.944 121.741 132.548 127.381 131.801C131.155 131.303 135.178 128.483 135.924 124.543C136.297 122.718 135.883 121.143 135.509 120.23C133.726 119.359 130.533 117.534 128.044 113.968C126.8 112.226 126.054 110.526 125.639 109.198C125.432 109.364 124.768 109.862 123.856 109.82C122.777 109.779 122.114 109.032 121.948 108.825C120.662 107.374 120.787 104.388 122.487 103.392C123.358 102.895 124.353 103.06 124.892 103.185C124.644 101.65 124.395 98.374 126.137 94.9318C127.298 92.6093 129.081 90.9089 133.187 88.3376C136.588 86.2225 138.081 86.3884 138.62 86.4713C140.445 86.8031 141.564 88.2547 142.145 89.0012C144.758 92.319 148.159 96.5907 152.223 101.858C152.389 101.775 153.509 101.236 154.628 101.733C155.416 102.107 155.79 102.812 156.038 103.351C156.246 103.807 156.578 104.47 156.412 105.258C156.246 106.254 155.458 107.166 154.38 107.498C153.052 107.913 151.974 107.208 151.808 107.083C151.476 108.659 150.813 111.023 149.237 113.553C147.619 116.124 145.753 117.825 144.468 118.82C144.302 119.815 144.094 121.64 144.882 123.714C146.126 127.115 149.361 129.271 152.347 129.935C157.946 131.137 162.467 126.949 163.628 125.829C167.609 122.096 170.015 115.834 167.983 109.82C166.448 105.341 163.047 102.895 161.72 102.024C160.103 98.2911 158.444 95.388 157.117 93.3143C153.384 87.4667 150.813 83.5268 146.126 82.0752C143.265 81.2043 140.652 81.5361 138.91 81.9508C136.09 81.3287 133.892 81.5776 132.399 81.9508C125.515 83.6512 120.289 90.5357 118.672 99.4523Z" fill="#E8434B"/>
<path opacity="0.08" d="M147.122 94.8488C146.79 94.9732 147.454 97.1298 147.785 99.2864C147.827 99.5767 148.532 104.927 146.541 110.028C144.302 115.751 139.657 118.82 137.625 119.981C138.91 120.272 140.237 120.562 141.523 120.894C141.896 123.133 142.228 125.414 142.601 127.654C143.431 126.658 144.302 125.663 145.131 124.668C145.504 125.373 146.168 126.41 147.205 127.363C147.537 127.695 149.942 129.852 153.509 130.142C157.49 130.515 160.435 128.359 162.093 127.156C163.213 126.368 166.531 123.88 168.066 119.11C169.724 113.926 168.107 109.572 167.609 108.369C167.07 110.443 165.95 113.553 163.545 116.58C162.964 117.327 157.739 123.838 154.504 122.718C151.725 121.765 150.771 115.212 152.14 106.627C152.223 106.71 152.887 107.498 153.84 107.457C155.043 107.415 155.582 106.212 155.665 106.088C156.246 104.844 155.541 103.475 154.836 102.729C153.923 101.733 152.679 101.567 152.306 101.567C151.767 101.028 150.979 100.199 150.149 99.1205C148.159 96.6736 147.412 94.7659 147.122 94.8488Z" fill="#353535"/>
<path opacity="0.09" d="M137.085 104.056C137.417 103.516 139.242 103.392 139.781 104.512C140.196 105.383 139.657 106.544 139.076 106.668C138.164 106.917 136.629 104.761 137.085 104.056Z" fill="#353535"/>
<path opacity="0.09" d="M127.505 121.599C126.634 123.092 124.892 124.46 123.151 124.294C122.114 124.211 120.953 123.589 116.93 117.161C115.603 115.046 114.566 113.221 113.861 112.018C113.487 113.387 112.99 115.834 113.404 118.778C113.57 119.94 113.985 121.93 115.105 124.087C115.81 125.455 117.469 128.483 120.994 130.391C122.031 130.971 123.856 131.925 126.302 131.925C130.408 131.884 133.063 129.147 133.602 128.566C134.556 127.612 135.924 126.161 136.132 123.88C136.339 121.681 135.302 119.981 135.053 119.649C133.809 117.742 132.482 117.949 130.367 116.124C127.671 113.802 126.925 110.94 126.593 111.064C126.095 111.355 129.869 117.534 127.505 121.599Z" fill="#353535"/>
<path opacity="0.13" d="M151.974 104.139C151.725 104.056 150.979 106.668 148.822 110.194C145.753 115.212 141.979 118.488 139.242 120.479C141.15 119.94 144.551 118.696 147.371 115.627C151.85 110.816 152.347 104.263 151.974 104.139Z" fill="#353535"/>
</g>
<defs>
<filter id="filter0_d_998_2751" x="-83" y="-79" width="462" height="328" filterUnits="userSpaceOnUse" color-interpolation-filters="sRGB">
<feFlood flood-opacity="0" result="BackgroundImageFix"/>
<feColorMatrix in="SourceAlpha" type="matrix" values="0 0 0 0 0 0 0 0 0 0 0 0 0 0 0 0 0 0 127 0" result="hardAlpha"/>
<feOffset dy="4"/>
<feGaussianBlur stdDeviation="41.5"/>
<feComposite in2="hardAlpha" operator="out"/>
<feColorMatrix type="matrix" values="0 0 0 0 0 0 0 0 0 0 0 0 0 0 0 0 0 0 0.05 0"/>
<feBlend mode="normal" in2="BackgroundImageFix" result="effect1_dropShadow_998_2751"/>
<feBlend mode="normal" in="SourceGraphic" in2="effect1_dropShadow_998_2751" result="shape"/>
</filter>
<clipPath id="clip0_998_2751">
<rect width="296" height="162" rx="18" fill="white"/>
</clipPath>
</defs>
</svg>
