<svg width="1424" height="1198" viewBox="0 0 1424 1198" fill="none" xmlns="http://www.w3.org/2000/svg">
<path d="M307.454 1196.92L404.568 927.888C419.896 885.427 397.921 838.577 355.471 823.216V823.216C313.022 807.856 291.047 761.006 306.375 718.544L376.757 523.569C414.872 417.982 531.401 363.324 636.959 401.52L644.924 404.403C746.084 441.008 857.757 388.627 894.284 287.44L907.609 250.526C936.778 169.721 1025.96 127.891 1106.74 157.123V157.123C1187.44 186.323 1229.21 275.383 1200.07 356.1L1127.45 557.292C1106.43 615.515 1042.17 645.654 983.966 624.592V624.592C890.104 590.627 802.045 687.125 844.434 777.496L908.851 914.829" stroke="white" stroke-dasharray="17 17"/>
<circle cx="809" cy="390" r="5" fill="white"/>
<circle cx="1164" cy="194" r="5" fill="white"/>
<circle cx="466" cy="417" r="5" fill="white"/>
</svg>
