<svg width="296" height="162" viewBox="0 0 296 162" fill="none" xmlns="http://www.w3.org/2000/svg">
<g clip-path="url(#clip0_998_2546)">
<g filter="url(#filter0_d_998_2546)">
<rect width="296" height="162" rx="18" fill="#E8434B"/>
</g>
<ellipse cx="50.411" cy="119.411" rx="48.5" ry="143" transform="rotate(45 50.411 119.411)" fill="#F4646B"/>
<ellipse cx="166.411" cy="119.411" rx="48.5" ry="143" transform="rotate(45 166.411 119.411)" fill="#F4646B"/>
<path d="M259.068 208.592C257.412 207.289 256.407 205.469 255.565 203.568C254.614 201.34 253.799 199.059 253.066 196.75C251.681 192.323 250.676 187.76 250.078 183.17C248.856 173.555 249.834 163.831 248.666 154.189C248.421 154.27 248.15 154.325 247.905 154.406C250.947 161.251 258.063 165.352 263.984 169.426C263.93 169.236 263.876 169.046 263.849 168.856C263.034 170.024 262.219 171.192 261.404 172.36C261.214 172.631 261.459 172.984 261.757 172.984C262.817 172.984 263.74 172.849 264.745 172.495C264.582 172.441 264.446 172.36 264.283 172.305C265.288 173.853 266.293 175.402 267.298 176.95C267.325 176.787 267.352 176.624 267.352 176.461C266.864 176.923 266.456 177.439 266.049 178.009C265.913 178.199 266.049 178.579 266.293 178.607C268.52 178.933 269.308 181.051 269.878 182.952C270.041 183.441 270.829 183.251 270.666 182.735C269.987 180.589 269.009 178.172 266.51 177.819C266.592 178.009 266.673 178.226 266.755 178.417C267.108 177.873 267.461 177.493 267.923 177.058C268.059 176.95 268.086 176.705 267.977 176.57C266.972 175.021 265.967 173.473 264.962 171.925C264.881 171.789 264.691 171.681 264.501 171.735C263.577 172.034 262.681 172.197 261.73 172.17C261.839 172.387 261.975 172.577 262.083 172.794C262.898 171.626 263.713 170.458 264.528 169.29C264.664 169.1 264.555 168.856 264.392 168.72C258.579 164.727 251.599 160.735 248.611 153.999C248.448 153.646 247.797 153.809 247.851 154.216C249.046 164.211 247.987 174.315 249.399 184.283C250.078 189.091 251.192 193.817 252.74 198.407C253.989 202.128 255.293 206.664 258.471 209.19C258.905 209.489 259.476 208.918 259.068 208.592Z" fill="#E8E8E8"/>
<path d="M248.068 155.004C250.268 161.088 252.115 167.498 255.076 173.283C256.542 176.135 258.145 178.933 259.53 181.839C261.024 184.99 262.355 188.195 263.713 191.372C263.903 191.861 264.609 191.427 264.419 190.965C263.143 187.923 261.839 184.881 260.454 181.893C259.096 178.96 257.52 176.162 255.999 173.31C252.957 167.498 251.083 160.979 248.829 154.814C248.666 154.298 247.878 154.515 248.068 155.004Z" fill="#E8E8E8"/>
<path d="M22.4692 84.6297C22.4692 89.057 22.4692 93.5114 22.4692 97.9386C22.4692 98.4547 23.2841 98.4547 23.2841 97.9386C23.2841 93.5114 23.2841 89.057 23.2841 84.6297C23.2841 84.1137 22.4692 84.1137 22.4692 84.6297Z" fill="#E8E8E8"/>
<path d="M8.80721 98.5905C19.7259 98.5905 30.6446 98.5905 41.5634 98.5905C42.0794 98.5905 42.0794 97.7756 41.5634 97.7756C30.6446 97.7756 19.7259 97.7756 8.80721 97.7756C8.29115 97.7756 8.29115 98.5905 8.80721 98.5905Z" fill="#E8E8E8"/>
<path d="M31.6766 98.9706C31.6766 102.393 31.6766 105.788 31.6766 109.21C31.6766 109.726 32.4915 109.726 32.4915 109.21C32.4915 105.788 32.4915 102.393 32.4915 98.9706C32.4915 98.4274 31.6766 98.4274 31.6766 98.9706Z" fill="#E8E8E8"/>
<path d="M22.6321 110.623C31.3237 110.623 40.0423 110.623 48.7339 110.623C49.2499 110.623 49.2499 109.808 48.7339 109.808C40.0423 109.808 31.3237 109.808 22.6321 109.808C22.0889 109.808 22.0889 110.623 22.6321 110.623Z" fill="#E8E8E8"/>
<path d="M241.821 75.096C241.821 76.1825 241.821 77.2417 241.821 78.3282C241.821 78.8442 242.636 78.8442 242.636 78.3282C242.636 77.2417 242.636 76.1825 242.636 75.096C242.636 74.58 241.821 74.58 241.821 75.096Z" fill="#E8E8E8"/>
<path d="M242.473 75.7479C261.16 75.7479 279.846 75.7479 298.533 75.7479C299.049 75.7479 299.049 74.9331 298.533 74.9331C279.846 74.9331 261.16 74.9331 242.473 74.9331C241.957 74.9331 241.957 75.7479 242.473 75.7479Z" fill="#E8E8E8"/>
<path d="M242.962 78.7357C261.486 78.7357 280.01 78.7357 298.506 78.7357C299.022 78.7357 299.022 77.9209 298.506 77.9209C279.982 77.9209 261.459 77.9209 242.962 77.9209C242.446 77.9209 242.446 78.7357 242.962 78.7357Z" fill="#E8E8E8"/>
<path d="M246.303 75.1235C246.303 67.5456 246.303 59.9676 246.303 52.3897C246.303 51.8737 245.488 51.8737 245.488 52.3897C245.488 59.9676 245.488 67.5456 245.488 75.1235C245.488 75.6667 246.303 75.6667 246.303 75.1235Z" fill="#E8E8E8"/>
<path d="M246.303 52.5255C248.612 51.602 251.056 51.7378 253.202 53.0144C253.664 53.286 254.071 52.5798 253.609 52.3082C251.301 50.9501 248.557 50.7329 246.086 51.7378C245.597 51.9279 245.814 52.7156 246.303 52.5255Z" fill="#E8E8E8"/>
<path d="M253.066 52.8241C253.066 60.1032 253.066 67.4095 253.066 74.6887C253.066 75.2047 253.881 75.2047 253.881 74.6887C253.881 67.4095 253.881 60.1032 253.881 52.8241C253.881 52.308 253.066 52.308 253.066 52.8241Z" fill="#E8E8E8"/>
<path d="M253.989 58.9082C255.646 58.2291 257.384 58.3378 258.933 59.2884C259.394 59.56 259.802 58.8538 259.34 58.5822C257.629 57.5501 255.619 57.36 253.772 58.1205C253.283 58.3106 253.5 59.0983 253.989 58.9082Z" fill="#E8E8E8"/>
<path d="M258.77 59.2613C258.77 64.3676 258.77 69.4467 258.77 74.5529C258.77 75.069 259.585 75.069 259.585 74.5529C259.585 69.4467 259.585 64.3676 259.585 59.2613C259.585 58.7453 258.77 58.7453 258.77 59.2613Z" fill="#E8E8E8"/>
<path d="M246.412 58.7725C248.72 58.2564 251.002 58.4194 253.229 59.2071C253.718 59.37 253.935 58.5824 253.446 58.4194C251.083 57.5774 248.639 57.4688 246.194 57.9848C245.705 58.0935 245.923 58.8811 246.412 58.7725Z" fill="#E8E8E8"/>
<path d="M253.419 68.1973C255.157 67.7355 256.896 67.6812 258.661 68.0614C259.177 68.1701 259.395 67.3824 258.878 67.2738C256.977 66.8664 255.103 66.8935 253.202 67.4096C252.713 67.5454 252.903 68.3331 253.419 68.1973Z" fill="#E8E8E8"/>
<path d="M269.037 74.8517C269.037 73.3307 269.037 71.8097 269.037 70.2887C269.037 69.7726 268.222 69.7726 268.222 70.2887C268.222 71.8097 268.222 73.3307 268.222 74.8517C268.222 75.3678 269.037 75.3678 269.037 74.8517Z" fill="#E8E8E8"/>
<path d="M268.629 70.5331C277.456 70.5331 286.257 70.5331 295.084 70.5331C295.6 70.5331 295.6 69.7183 295.084 69.7183C286.257 69.7183 277.456 69.7183 268.629 69.7183C268.086 69.7183 268.086 70.5331 268.629 70.5331Z" fill="#E8E8E8"/>
<path d="M295.356 70.9677C295.872 70.9677 295.872 70.1528 295.356 70.1528C294.812 70.1528 294.812 70.9677 295.356 70.9677Z" fill="#E8E8E8"/>
<path d="M294.948 70.5601C294.948 71.9453 294.948 73.3306 294.948 74.7158C294.948 75.2318 295.763 75.2318 295.763 74.7158C295.763 73.3306 295.763 71.9453 295.763 70.5601C295.763 70.0441 294.948 70.0441 294.948 70.5601Z" fill="#E8E8E8"/>
<path d="M274.17 69.99C274.17 68.5505 274.17 67.1381 274.17 65.6986C274.17 65.1825 273.355 65.1825 273.355 65.6986C273.355 67.1381 273.355 68.5505 273.355 69.99C273.355 70.5061 274.17 70.5061 274.17 69.99Z" fill="#E8E8E8"/>
<path d="M273.763 65.9701C282.427 65.9701 291.091 65.9701 299.783 65.9701C300.299 65.9701 300.299 65.1553 299.783 65.1553C291.119 65.1553 282.454 65.1553 273.763 65.1553C273.247 65.1553 273.247 65.9701 273.763 65.9701Z" fill="#E8E8E8"/>
<path d="M294.785 70.6691C296.361 70.6691 297.936 70.6691 299.511 70.6691C300.027 70.6691 300.027 69.8542 299.511 69.8542C297.936 69.8542 296.361 69.8542 294.785 69.8542C294.242 69.8542 294.242 70.6691 294.785 70.6691Z" fill="#E8E8E8"/>
<path d="M279.955 65.7529C280.308 67.1381 280.39 68.5505 280.2 69.99C280.145 70.5061 280.96 70.5061 281.014 69.99C281.205 68.4961 281.096 67.0023 280.743 65.5356C280.607 65.0467 279.819 65.264 279.955 65.7529Z" fill="#E8E8E8"/>
<path d="M286.094 70.4789C286.284 71.837 286.175 73.1679 285.849 74.4716C285.713 74.9876 286.501 75.2049 286.637 74.6889C287.017 73.2222 287.099 71.7555 286.881 70.2616C286.827 69.7456 286.039 69.9629 286.094 70.4789Z" fill="#E8E8E8"/>
<path d="M280.77 103.534C280.77 105.679 280.77 107.798 280.77 109.944C280.77 110.46 281.585 110.46 281.585 109.944C281.585 107.798 281.585 105.679 281.585 103.534C281.585 102.99 280.77 102.99 280.77 103.534Z" fill="#E8E8E8"/>
<path d="M274.469 110.052C279.901 110.052 285.333 110.052 290.765 110.052C291.281 110.052 291.281 109.237 290.765 109.237C285.333 109.237 279.901 109.237 274.469 109.237C273.953 109.237 273.953 110.052 274.469 110.052Z" fill="#E8E8E8"/>
<path d="M265.207 18.6827C265.207 23.5717 265.207 28.4878 265.207 33.3768C265.207 33.8929 266.022 33.8929 266.022 33.3768C266.022 28.4878 266.022 23.5717 266.022 18.6827C266.022 18.1666 265.207 18.1666 265.207 18.6827Z" fill="#E8E8E8"/>
<path d="M266.239 18.6556C272.432 18.6556 278.597 18.6556 284.79 18.6556C285.306 18.6556 285.306 17.8408 284.79 17.8408C278.597 17.8408 272.432 17.8408 266.239 17.8408C265.723 17.8408 265.723 18.6556 266.239 18.6556Z" fill="#E8E8E8"/>
<path d="M284.817 18.547C284.817 23.273 284.817 27.999 284.817 32.6978C284.817 33.2139 285.632 33.2139 285.632 32.6978C285.632 27.9718 285.632 23.2458 285.632 18.547C285.632 18.0309 284.817 18.0309 284.817 18.547Z" fill="#E8E8E8"/>
<path d="M265.506 33.8388C272.079 33.8388 278.651 33.8388 285.224 33.8388C285.741 33.8388 285.741 33.0239 285.224 33.0239C278.651 33.0239 272.079 33.0239 265.506 33.0239C264.99 33.0239 264.99 33.8388 265.506 33.8388Z" fill="#E8E8E8"/>
<path d="M267.027 20.3668C267.027 24.0878 267.027 27.7817 267.027 31.5028C267.027 32.0188 267.841 32.0188 267.841 31.5028C267.841 27.7817 267.841 24.0878 267.841 20.3668C267.841 19.8507 267.027 19.8507 267.027 20.3668Z" fill="#E8E8E8"/>
<path d="M267.624 20.6928C272.703 20.6928 277.81 20.6928 282.889 20.6928C283.405 20.6928 283.405 19.8779 282.889 19.8779C277.81 19.8779 272.703 19.8779 267.624 19.8779C267.108 19.8779 267.108 20.6928 267.624 20.6928Z" fill="#E8E8E8"/>
<path d="M282.59 20.3668C282.59 23.8162 282.59 27.2385 282.59 30.688C282.59 31.204 283.405 31.204 283.405 30.688C283.405 27.2385 283.405 23.8162 283.405 20.3668C283.405 19.8507 282.59 19.8507 282.59 20.3668Z" fill="#E8E8E8"/>
<path d="M267.624 31.91C272.676 31.91 277.728 31.91 282.807 31.91C283.323 31.91 283.323 31.0952 282.807 31.0952C277.755 31.0952 272.703 31.0952 267.624 31.0952C267.108 31.0952 267.108 31.91 267.624 31.91Z" fill="#E8E8E8"/>
<path d="M277.239 27.0211C275.093 25.3915 278.298 21.9963 279.792 24.0334C281.178 25.8804 278.923 28.1076 276.995 27.0754C276.533 26.831 276.126 27.5372 276.587 27.7816C277.837 28.4607 279.494 28.2705 280.39 27.1026C281.313 25.9347 281.205 24.0877 280.037 23.1099C278.815 22.105 277.076 22.784 276.234 23.9248C275.338 25.1742 275.61 26.8038 276.832 27.7273C277.266 28.0261 277.647 27.3199 277.239 27.0211Z" fill="#E8E8E8"/>
<path d="M274.659 31.0409C274.55 28.8952 277.185 28.0804 278.842 28.0804C280.879 28.0804 281.531 29.9002 282.373 31.4483C282.617 31.9101 283.323 31.5027 283.079 31.0409C282.508 30.0088 281.965 28.6508 281.015 27.8903C280.145 27.2112 279.059 27.2384 278.027 27.347C276.126 27.5643 273.708 28.7322 273.844 31.0409C273.871 31.557 274.686 31.557 274.659 31.0409Z" fill="#E8E8E8"/>
<path d="M267.977 29.0855C268.575 27.9719 270.775 28.4065 271.59 28.8411C272.432 29.3028 272.921 30.0633 273.138 30.9868C273.247 31.5028 274.034 31.2855 273.926 30.7695C273.6 29.3571 272.622 28.2435 271.21 27.7818C270.014 27.4015 267.977 27.3744 267.298 28.6509C267.027 29.1398 267.733 29.5472 267.977 29.0855Z" fill="#E8E8E8"/>
<path d="M269.553 27.0757C268.656 27.0485 268.874 25.7176 269.254 25.2559C269.743 24.6583 270.721 24.5769 271.291 25.1472C271.753 25.5818 271.889 26.3966 271.508 26.9127C271.237 27.293 270.829 27.3744 270.395 27.3744C270.232 27.3744 269.553 27.4016 269.444 27.2658C269.145 26.8312 268.439 27.2386 268.738 27.6732C269.064 28.1621 269.743 28.1893 270.286 28.1893C270.938 28.2164 271.563 28.0535 272.024 27.5646C272.894 26.6139 272.595 25.0114 271.563 24.3052C270.449 23.5719 268.901 23.9793 268.331 25.1744C267.842 26.2337 268.195 27.8362 269.553 27.8633C270.096 27.9177 270.096 27.1028 269.553 27.0757Z" fill="#E8E8E8"/>
<path d="M103.327 90.8767C104.604 91.9088 106.179 91.4742 107.374 90.4693C109.058 89.0841 109.9 86.7211 110.226 84.6297C111.068 79.3061 108.922 74.2542 108.08 69.0936C106.559 59.5058 110.742 49.2389 118.51 43.4808C122.286 40.656 128.506 37.6412 127.039 31.8559C126.903 31.3398 126.115 31.5571 126.251 32.0732C127.636 37.5868 121.226 40.3844 117.723 43.0462C114.572 45.4635 112.019 48.587 110.199 52.0908C108.406 55.4859 107.32 59.2613 107.021 63.091C106.668 67.7355 107.89 72.0541 108.895 76.5357C109.493 79.2518 109.873 82.1037 109.357 84.8741C109.113 86.1507 108.678 87.4001 107.999 88.5137C107.238 89.7088 105.419 91.5557 103.898 90.3335C103.517 89.9804 102.92 90.5508 103.327 90.8767Z" fill="#E8E8E8"/>
<path d="M126.74 31.5299C123.671 31.6657 120.982 29.2756 121.145 26.1249C121.308 22.8384 125.192 19.7964 128.478 20.6655C131.412 21.4532 133.666 24.6854 132.933 27.7002C132.199 30.7151 128.804 31.367 126.197 31.8016C125.681 31.883 125.898 32.6707 126.414 32.5892C129.782 32.046 133.693 30.8509 133.911 26.7768C134.074 23.4631 131.113 19.8779 127.718 19.7421C124.133 19.5791 120.52 22.5125 120.33 26.1521C120.167 29.7373 123.236 32.5077 126.74 32.3719C127.256 32.3176 127.256 31.5028 126.74 31.5299Z" fill="#E8E8E8"/>
<path d="M122.72 29.4115C124.024 26.125 130.977 25.5818 131.792 29.493C131.9 30.009 132.688 29.7918 132.579 29.2757C131.574 24.4954 123.508 25.2015 121.932 29.1942C121.742 29.6831 122.53 29.8732 122.72 29.4115Z" fill="#E8E8E8"/>
<path d="M126.794 25.7448C126.224 25.3374 126.007 24.5497 126.387 23.9522C126.822 23.2188 127.745 23.1373 128.451 23.5176C128.994 23.8164 129.103 24.4954 128.777 25.0114C128.37 25.6362 127.501 25.7176 126.822 25.5547C126.305 25.446 126.088 26.2337 126.604 26.3423C127.691 26.5868 128.994 26.3423 129.538 25.2831C130.027 24.3324 129.673 23.1917 128.696 22.7299C127.609 22.241 126.305 22.4583 125.681 23.5176C125.056 24.5226 125.464 25.772 126.387 26.4238C126.822 26.7769 127.229 26.0707 126.794 25.7448Z" fill="#E8E8E8"/>
<path d="M138.311 17.3791C141.162 9.82838 149.365 5.97152 156.997 5.45546C162.049 5.10237 167.101 5.89004 172.044 6.84067C176.716 7.76415 181.578 9.23084 186.358 9.06787C190.297 8.93207 194.344 7.30241 196.191 3.63568C196.435 3.17394 195.729 2.76652 195.484 3.22826C193.339 7.46537 188.395 8.55181 184.022 8.19872C178.916 7.79131 173.891 6.27029 168.867 5.4283C160.718 4.07025 152.027 3.88013 144.775 8.47033C141.488 10.5617 138.881 13.4951 137.496 17.1618C137.333 17.6507 138.12 17.868 138.311 17.3791Z" fill="#E8E8E8"/>
<path d="M199.477 3.17396C206.648 3.17396 213.845 3.17396 221.016 3.17396C221.532 3.17396 221.532 2.35913 221.016 2.35913C213.845 2.35913 206.648 2.35913 199.477 2.35913C198.934 2.35913 198.934 3.17396 199.477 3.17396Z" fill="#E8E8E8"/>
<path d="M199.178 2.3047C197.902 1.0553 199.287 -1.06326 200.292 -2.0139C201.514 -3.20898 203.198 -3.67071 204.828 -3.01885C204.964 -2.96453 205.235 -3.04601 205.29 -3.20898C206.267 -5.4905 208.576 -7.14732 211.102 -7.03868C213.737 -6.93003 215.964 -4.94728 216.616 -2.44847C216.67 -2.20402 216.996 -2.06822 217.213 -2.20402C218.408 -2.93737 219.631 -2.06822 220.12 -0.954617C220.554 0.0775008 220.445 1.24542 220.337 2.35902C220.282 2.87508 221.097 2.87508 221.152 2.35902C221.315 0.729364 221.423 -1.19907 220.12 -2.44847C219.196 -3.31762 217.919 -3.58923 216.833 -2.91021C217.023 -2.82872 217.24 -2.74724 217.431 -2.66576C216.697 -5.38186 214.361 -7.55474 211.509 -7.82635C208.576 -8.12512 205.751 -6.30533 204.611 -3.61639C204.774 -3.67071 204.909 -3.7522 205.072 -3.80652C202.899 -4.67567 200.618 -3.7522 199.206 -1.95957C198.146 -0.628685 197.223 1.51703 198.662 2.90224C198.988 3.25534 199.559 2.68496 199.178 2.3047Z" fill="#E8E8E8"/>
<path d="M214.633 6.29737C217.974 5.91712 219.929 9.42089 220.445 12.2456C220.989 15.1519 220.473 18.0581 220.174 20.9643C219.712 25.3372 220.011 30.6065 224.167 33.1596C224.601 33.4312 225.036 32.725 224.574 32.4534C218.897 28.9768 221.26 21.2359 221.478 15.9124C221.641 11.8654 220.038 4.885 214.633 5.48254C214.117 5.53687 214.117 6.3517 214.633 6.29737Z" fill="#E8E8E8"/>
<path d="M228.675 28.5695C226.231 34.735 223.813 40.9006 221.369 47.0389C221.179 47.5278 221.966 47.7451 222.157 47.2562C224.601 41.0907 227.018 34.9251 229.463 28.7868C229.653 28.2979 228.865 28.1077 228.675 28.5695Z" fill="#E8E8E8"/>
<path d="M229.055 29.0854C233.292 28.8681 237.502 28.9767 241.712 29.4656C241.577 29.3026 241.441 29.1125 241.332 28.9496C239.322 35.3867 237.693 41.9053 236.389 48.5055C236.28 49.0215 237.068 49.2388 237.176 48.7228C238.48 42.1226 240.137 35.604 242.12 29.1668C242.201 28.8952 241.984 28.6779 241.74 28.6508C237.53 28.1619 233.32 28.0532 229.083 28.2705C228.539 28.2977 228.539 29.1125 229.055 29.0854Z" fill="#E8E8E8"/>
<path d="M221.559 47.8264C224.058 47.935 226.529 48.0708 229.028 48.2338C231.446 48.3696 234.026 48.3153 236.307 49.2388C236.796 49.4289 237.014 48.6412 236.525 48.4511C234.352 47.5548 231.88 47.6091 229.571 47.4733C226.91 47.3103 224.248 47.1745 221.559 47.0387C221.043 46.9844 221.043 47.7992 221.559 47.8264Z" fill="#E8E8E8"/>
<path d="M229.436 31.8017C232.043 31.856 234.651 32.0462 237.231 32.3992C237.747 32.4807 237.964 31.6931 237.448 31.6116C234.786 31.2313 232.125 31.014 229.436 30.9597C228.893 30.9597 228.893 31.7745 229.436 31.8017Z" fill="#E8E8E8"/>
<path d="M228.648 33.6485C230.115 33.5942 231.581 33.6214 233.048 33.7572C233.564 33.8115 233.564 32.9967 233.048 32.9423C231.581 32.8065 230.115 32.7522 228.648 32.8337C228.132 32.8609 228.132 33.6757 228.648 33.6485Z" fill="#E8E8E8"/>
<path d="M226.855 37.3154C229.979 37.1253 232.939 36.8537 236.009 37.6142C236.525 37.75 236.742 36.9623 236.226 36.8265C233.075 36.066 230.06 36.3105 226.855 36.5006C226.312 36.5277 226.312 37.3426 226.855 37.3154Z" fill="#E8E8E8"/>
<path d="M226.991 39.7055C228.784 39.5697 230.576 39.5697 232.369 39.7327C232.885 39.787 232.885 38.9722 232.369 38.9178C230.576 38.7549 228.784 38.7549 226.991 38.8907C226.475 38.945 226.448 39.7598 226.991 39.7055Z" fill="#E8E8E8"/>
<path d="M225.579 42.856C228.023 42.6931 230.413 42.7745 232.831 43.1005C233.347 43.182 233.347 42.3671 232.831 42.2856C230.413 41.9597 227.996 41.8782 225.579 42.0412C225.063 42.0684 225.063 42.8832 225.579 42.856Z" fill="#E8E8E8"/>
<path d="M90.4257 6.40601C91.5121 7.8727 93.0875 8.47024 94.69 9.20359C96.5912 10.0727 98.3295 11.2407 99.7419 12.7888C102.947 16.2383 104.006 20.8828 104.088 25.473C104.278 34.083 101.372 43.1005 105.283 51.2488C105.5 51.7105 106.206 51.3031 105.989 50.8414C101.888 42.2585 105.527 32.6435 104.821 23.6261C104.522 19.7149 103.409 15.8852 100.883 12.8432C99.6876 11.4036 98.2209 10.1542 96.5912 9.23075C94.7715 8.19863 92.4085 7.73689 91.1319 5.99859C90.8331 5.59118 90.1269 5.99859 90.4257 6.40601Z" fill="#E8E8E8"/>
<path d="M81.1368 -5.08322C80.4306 -5.97953 80.485 -6.60424 81.2998 -6.95733C81.6529 -7.14746 82.006 -7.28326 82.4134 -7.36474C82.9294 -7.47339 83.4998 -7.50055 84.043 -7.47339C85.6727 -7.3919 87.3295 -6.95733 87.248 -4.97458C87.1666 -2.63873 86.732 -0.330048 86.1616 1.92431C85.5641 4.233 84.8307 6.48736 84.043 8.74172C83.8801 9.23062 83.7443 9.801 83.4998 10.2627C83.0109 11.1047 82.2504 11.0776 81.4356 11.0776C80.4306 11.0776 79.1541 11.2134 78.1763 10.9418C77.0898 10.643 76.8454 9.55655 77.9047 8.85037C78.3936 8.52444 79.0726 8.47011 79.643 8.47011C80.3763 8.47011 81.0282 8.63308 81.6529 8.14418C82.848 7.22071 83.0381 4.7219 83.3097 3.39101C83.7171 1.46258 84.3961 -0.900428 84.2603 -2.85602C84.1517 -4.34987 82.685 -4.4042 81.6257 -5.0289C81.164 -5.30051 80.7566 -4.59432 81.2183 -4.32271C82.0603 -3.83381 83.2825 -3.77949 83.4455 -2.66589C83.6356 -1.36216 83.0924 0.403299 82.848 1.70703C82.6035 2.95643 82.3319 4.20584 82.006 5.42808C81.7615 6.35156 81.6529 7.46516 80.4306 7.7096C79.9417 7.81825 79.3442 7.65528 78.8281 7.73677C77.5244 7.92689 76.2478 8.85037 76.438 10.3171C76.6824 12.164 78.8825 11.8381 80.2405 11.8924C81.9245 11.9467 83.6085 12.1912 84.369 10.3985C85.3196 8.17134 85.9986 5.72685 86.6505 3.41817C87.3295 1.028 87.8456 -1.44365 88.0357 -3.9153C88.1987 -5.84373 88.2802 -7.3919 86.1344 -7.90796C84.2603 -8.3697 81.68 -8.58699 80.2133 -7.06597C79.2355 -6.06102 79.48 -4.07826 81.164 -4.21407C81.6529 -4.32271 81.6529 -5.13754 81.1368 -5.08322Z" fill="#E8E8E8"/>
<path d="M77.8502 -2.17679C77.823 -2.20395 77.7959 -2.23111 77.7687 -2.25827C77.66 -2.36691 77.4971 -2.39407 77.3613 -2.36691C76.5736 -2.0953 76.2748 -0.818736 76.0575 -0.112551C75.6773 1.19118 75.5958 2.52206 75.7859 3.88011C75.8403 4.39617 76.6551 4.39617 76.6008 3.88011C76.4921 2.92948 76.465 2.00601 76.6279 1.05537C76.7094 0.566474 77.5514 -1.3348 77.2526 -1.60641C77.6329 -1.22615 78.2033 -1.79653 77.8502 -2.17679Z" fill="#E8E8E8"/>
<path d="M75.1068 -5.16453C72.608 -1.98669 71.0055 1.84301 72.0648 5.91715C72.2006 6.43321 72.9883 6.21593 72.8525 5.69987C71.8747 1.95165 73.3957 -1.66076 75.6772 -4.59415C76.0032 -5.00156 75.4328 -5.57194 75.1068 -5.16453Z" fill="#E8E8E8"/>
<path d="M71.6847 -8.83124C67.5291 -3.37189 65.5735 3.527 66.2797 10.3716C66.334 10.8876 67.1488 10.8876 67.0945 10.3716C66.4155 3.66281 68.2896 -3.04595 72.3909 -8.42383C72.6897 -8.83124 71.9835 -9.23866 71.6847 -8.83124Z" fill="#E8E8E8"/>
<path d="M65.8996 18.9273C63.8082 19.9323 61.8526 21.3175 60.3044 23.0558C58.7291 24.8484 58.2402 26.7768 57.9957 29.1127C57.4525 34.4634 55.4697 40.3302 50.0919 42.5845C49.603 42.7747 49.8203 43.5623 50.3092 43.3722C54.6006 41.5796 57.0994 37.5054 58.1587 33.1054C58.7834 30.4707 58.4846 27.3472 59.8698 24.9842C61.2822 22.5669 63.8353 20.8014 66.307 19.6063C66.7959 19.4162 66.3885 18.71 65.8996 18.9273Z" fill="#E8E8E8"/>
<path d="M38.6026 57.007C36.81 57.0613 34.7729 56.3008 34.121 54.4539C33.3605 52.281 34.9902 50.1625 36.7285 49.0489C40.0964 46.876 44.6323 46.034 48.5435 45.9797C50.5263 45.9525 52.7806 45.9797 54.5189 47.0389C56.7461 48.397 57.1264 50.9501 55.3881 52.8786C52.7535 55.8119 48.2176 56.1107 44.578 56.3823C44.0619 56.4095 44.0619 57.2243 44.578 57.1971C48.2176 56.9255 52.2917 56.5996 55.2251 54.1551C57.914 51.9279 58.1042 48.234 54.9535 46.3056C51.6942 44.3228 46.7237 44.9747 43.1928 45.7352C39.7977 46.4686 35.1531 47.7994 33.6321 51.3032C32.0568 54.8885 35.0717 57.8762 38.6569 57.7675C39.1458 57.7947 39.1458 56.9799 38.6026 57.007Z" fill="#E8E8E8"/>
<path d="M38.4669 57.3327C37.7879 58.4191 37.136 59.5056 36.457 60.5648C36.2397 60.9179 36.6743 61.2982 37.0274 61.1352C38.6842 60.2389 40.4768 59.6685 42.1608 58.8809C43.0843 58.4735 43.9806 57.9846 44.8497 57.4413C45.1485 57.2512 45.5016 57.1426 45.5831 56.7623C45.6374 56.5722 45.5288 56.3006 45.3115 56.2734C45.2843 56.2734 45.2572 56.2734 45.23 56.2463C45.0399 56.2191 44.7683 56.3006 44.7411 56.5179C44.7411 56.545 44.7411 56.545 44.7411 56.5722C44.6324 57.0882 45.4201 57.3055 45.5288 56.7895C45.5288 56.7623 45.5288 56.7623 45.5288 56.7351C45.3658 56.8166 45.2028 56.9253 45.0399 57.0068C45.067 57.0068 45.0942 57.0068 45.1213 57.0339C45.0399 56.871 44.9312 56.708 44.8497 56.545C44.7683 56.8166 43.2472 57.4413 42.9213 57.6315C42.1065 58.066 41.2645 58.4191 40.3953 58.7722C39.1188 59.2883 37.8694 59.7772 36.6743 60.429C36.8644 60.6192 37.0545 60.8093 37.2447 60.9994C37.9237 59.913 38.5755 58.8265 39.2546 57.7673C39.4447 57.3055 38.7385 56.8981 38.4669 57.3327Z" fill="#E8E8E8"/>
<path d="M39.363 52.634C39.3358 52.5797 39.3358 52.4711 39.4173 52.4711C39.6346 52.4711 39.3901 52.7427 39.363 52.7699C39.2272 52.8513 38.7654 52.96 38.7926 52.6884C38.8198 52.3624 39.4445 52.0093 39.5531 52.4982C39.5803 52.634 39.4716 52.797 39.3358 52.8242C39.2543 52.8513 39.2 52.8513 39.1457 52.797C39.1185 52.7699 39.0642 52.7427 39.1185 52.7427C39.6346 52.7699 39.6346 51.955 39.1185 51.9279C38.5753 51.8735 38.1679 52.4439 38.3037 52.96C38.4395 53.476 39.037 53.7476 39.5259 53.6118C40.0148 53.476 40.3951 53.0415 40.3951 52.5254C40.3951 52.0093 39.9877 51.5748 39.5259 51.4661C38.521 51.2217 37.4617 52.6884 38.3309 53.4217C39.037 54.0193 40.4494 53.476 40.3679 52.4711C40.3136 51.9279 39.7161 51.4933 39.1728 51.6834C38.6296 51.8735 38.4123 52.5526 38.6839 53.0415C38.9012 53.5032 39.6074 53.0958 39.363 52.634Z" fill="#E8E8E8"/>
<path d="M45.3657 51.9008C45.3385 51.7378 45.257 51.5205 45.42 51.3847C45.5015 51.3033 45.6373 51.3033 45.7459 51.3033C46.0175 51.3576 45.9632 51.6563 45.7731 51.7922C45.6644 51.8736 45.5558 51.8736 45.4743 51.765C45.3928 51.6563 45.42 51.6292 45.5015 51.5749C45.5558 51.5477 45.3928 51.5749 45.5286 51.5477C45.8546 51.4934 45.3113 51.8736 45.3928 51.602C45.2298 52.1181 46.0175 52.3082 46.1805 51.8193C46.3163 51.3304 45.8546 50.8415 45.3657 50.923C44.7953 51.0316 44.6595 51.7107 45.0126 52.1181C45.3385 52.4983 45.936 52.4169 46.1805 51.9823C46.4249 51.5477 46.262 50.9773 45.7731 50.8144C45.2842 50.6514 44.7409 50.9502 44.6323 51.4391C44.4965 51.9823 44.8768 52.5255 45.42 52.6613C46.3978 52.8786 47.2126 51.5477 46.5064 50.8144C46.1533 50.4613 45.5829 50.4341 45.1484 50.6242C44.5508 50.923 44.5237 51.5477 44.6323 52.1181C44.6595 52.6341 45.4471 52.4169 45.3657 51.9008Z" fill="#E8E8E8"/>
<path d="M51.3954 50.0808C51.5041 50.0808 51.6127 50.108 51.7485 50.108V50.0808C51.7757 50.0537 51.7757 49.9993 51.8029 49.9722C51.83 49.9179 51.9115 49.8635 51.9658 49.8364C52.1016 49.7821 52.2374 49.7821 52.3189 49.9179C52.4276 50.1351 52.2374 50.5426 51.9658 50.3796C51.8029 50.271 51.7757 49.9993 52.0202 50.0537C52.0745 50.0537 52.1016 50.0808 52.1288 50.108C52.1288 50.108 52.1288 50.1623 52.1288 50.108C52.1288 50.0537 52.1288 50.1351 52.1016 50.1351C52.0202 50.1895 51.993 50.2438 51.9115 50.1895C51.7214 50.0537 51.4498 50.1623 51.3411 50.3253C51.2325 50.5426 51.314 50.7598 51.4769 50.8957C52.2646 51.466 53.3239 50.3253 52.6992 49.5648C52.1288 48.8857 50.9066 49.3203 50.9609 50.2166C50.988 50.6784 51.3411 51.0858 51.7757 51.1944C52.2103 51.3031 52.672 51.0858 52.9165 50.7055C53.4597 49.8635 52.6992 48.6956 51.6942 49.0215C51.2325 49.1845 50.8251 49.6462 50.8794 50.1623C50.9337 50.7327 51.7485 51.0315 52.0473 50.4611C52.3189 50.0265 51.6399 49.6191 51.3954 50.0808Z" fill="#E8E8E8"/>
<path d="M67.8007 26.3964C71.1415 24.5494 74.0477 22.1049 76.4651 19.1444C76.791 18.737 76.2206 18.1666 75.8947 18.574C73.5317 21.4802 70.6798 23.8704 67.3933 25.6902C66.9316 25.9346 67.339 26.6408 67.8007 26.3964Z" fill="#E8E8E8"/>
<path d="M108.434 27.1027C107.836 30.525 107.592 33.9744 107.755 37.451C107.782 37.9671 108.597 37.9671 108.569 37.451C108.406 34.0559 108.624 30.6608 109.221 27.32C109.303 26.8039 108.515 26.5866 108.434 27.1027Z" fill="#E8E8E8"/>
<path d="M104.278 106.494C104.278 102.339 106.233 98.4002 109.574 95.9014C109.982 95.6026 109.574 94.8965 109.167 95.1952C105.581 97.857 103.49 102.013 103.49 106.494C103.463 107.01 104.278 107.01 104.278 106.494Z" fill="#E8E8E8"/>
<path d="M248.774 111.085C253.527 119.559 249.861 128.929 240.952 152.206C236.66 163.397 228.811 183.957 217.729 213.264C206.838 217.23 188.803 222.119 166.504 220.57C153.548 219.674 142.683 216.877 134.454 213.997C133.231 211.797 128.994 203.568 132.172 195.582C133.938 191.155 137.496 187.977 145.046 184.229C152.489 180.535 165.607 175.347 184.674 174.397C177.205 137.213 189.998 106.739 209.907 99.7041C222.971 95.1138 242.228 99.4324 248.774 111.085Z" fill="white" stroke="#191919" stroke-width="2"/>
<path d="M247.036 114.154C239.159 124.122 237.367 137.512 234.352 149.49C231.12 162.31 227.399 175.103 221.831 187.136C218.761 193.736 215.149 200.091 210.83 205.958C210.532 206.393 211.238 206.8 211.537 206.365C219.115 196.044 224.465 184.338 228.594 172.278C232.777 160.002 235.547 147.345 238.806 134.823C240.653 127.707 243.016 120.591 247.634 114.751C247.932 114.317 247.362 113.747 247.036 114.154Z" fill="#191919"/>
<path d="M197.956 157.91C198.934 160.029 199.966 163.044 200.129 166.683C200.374 172.17 198.581 176.543 197.223 179.069C196.49 180.019 195.186 181.595 193.257 183.306C193.257 183.306 188.884 187.163 181.931 190.123C174.842 193.165 154.227 196.832 126.224 197.538C127.039 201.015 128.506 205.279 131.113 209.869C132.553 212.395 134.128 214.622 135.676 216.551C134.644 217.909 131.711 221.358 125.871 223.531C120.249 225.622 115.088 225.378 113.051 225.215C110.118 222.526 107.103 219.321 104.305 215.491C96.0753 204.165 94.1469 193.219 93.7938 186.185C95.8309 184.718 98.8186 182.708 102.73 180.562C110.878 176.081 118.347 173.636 124.486 171.817C135.051 168.72 145.155 166.575 168.405 162.636C175.684 161.414 185.761 159.73 197.956 157.91Z" fill="white" stroke="#191919" stroke-width="2"/>
<path opacity="0.19" d="M172.153 162.582C171.366 167.77 169.138 174.506 162.24 178.688C155.531 182.762 149.909 181.106 136.464 184.365C126.795 186.701 114.002 189.797 110.444 196.669C106.723 203.894 113.757 214.079 126.061 222.445C127.093 222.309 128.397 222.037 129.782 221.494C133.34 220.082 135.079 217.773 135.73 216.768C134.155 214.867 132.525 212.667 131.032 210.141C128.207 205.415 126.686 201.015 125.817 197.457C140.212 196.859 152.299 195.61 161.479 194.415C172.534 192.975 180.193 191.535 187.499 187.407C193.611 183.958 196.055 180.562 196.924 179.259C199.559 175.266 199.776 171.626 199.885 169.589C200.156 164.619 198.527 160.572 197.169 158.019C188.83 159.54 180.492 161.061 172.153 162.582Z" fill="#6C6D6D"/>
<path opacity="0.19" d="M197.44 158.589C196.897 163.641 194.968 171.627 187.282 177.928C182.556 181.812 177.477 183.55 157.541 188.928C148.74 191.291 138.093 194.089 125.979 197.131C141.38 196.968 153.901 195.691 162.891 194.469C172.207 193.192 176.771 192.079 181.497 190.042C185.978 188.113 195.023 184.202 198.717 175.972C202.275 167.987 198.689 160.817 197.44 158.589Z" fill="#6C6D6D"/>
<path d="M202.927 157.068C203.877 159.757 204.855 163.505 205.018 168.095C205.263 174.994 203.524 180.481 202.221 183.658C201.514 184.854 200.265 186.836 198.418 189.009C198.418 189.009 194.235 193.871 187.554 197.592C180.736 201.395 160.909 206.039 134.019 206.908C134.807 211.281 136.192 216.632 138.718 222.39C140.103 225.568 141.624 228.365 143.118 230.783C142.141 232.494 139.316 236.813 133.693 239.556C128.288 242.19 123.345 241.892 121.362 241.647C118.538 238.279 115.631 234.232 112.97 229.425C105.039 215.192 103.192 201.422 102.866 192.594C104.821 190.775 107.7 188.222 111.449 185.533C119.298 179.91 126.441 176.814 132.363 174.532C142.494 170.648 152.244 167.959 174.598 162.989C181.497 161.441 191.22 159.349 202.927 157.068Z" fill="white" stroke="#191919" stroke-width="2"/>
<path opacity="0.19" d="M178.129 162.935C177.368 169.453 175.223 177.9 168.595 183.169C162.158 188.303 156.726 186.211 143.824 190.313C134.535 193.246 122.231 197.157 118.809 205.795C115.224 214.866 121.987 227.686 133.802 238.17C134.807 238.007 136.056 237.654 137.387 236.975C140.81 235.21 142.466 232.304 143.091 231.027C141.57 228.637 139.995 225.867 138.555 222.689C135.839 216.74 134.372 211.227 133.558 206.745C147.41 205.985 159.007 204.437 167.862 202.943C178.509 201.15 185.842 199.33 192.877 194.142C198.744 189.797 201.107 185.532 201.922 183.903C204.448 178.878 204.665 174.315 204.774 171.762C205.018 165.515 203.47 160.436 202.166 157.231C194.154 159.105 186.141 161.006 178.129 162.935Z" fill="#6C6D6D"/>
<path opacity="0.19" d="M202.411 157.91C201.895 164.238 200.048 174.288 192.66 182.219C188.097 187.108 183.235 189.281 164.087 196.044C155.612 199.032 145.4 202.535 133.748 206.365C148.55 206.148 160.61 204.572 169.247 203.024C178.21 201.422 182.61 200.037 187.119 197.483C191.438 195.039 200.102 190.15 203.687 179.775C207.082 169.725 203.633 160.735 202.411 157.91Z" fill="#6C6D6D"/>
<path d="M123.263 114.86C122.747 114.615 121.715 114.153 121.742 113.637C121.797 112.795 124.594 112.225 126.686 112.252C128.098 112.252 130.706 112.551 133.748 114.669C130.896 115.566 126.686 116.381 123.263 114.86Z" fill="white" stroke="#191919" stroke-width="2"/>
<path d="M188.586 79.632C183.425 78.953 178.781 86.6938 178.346 87.4C176.771 90.089 176.581 91.8816 175.494 96.7977C172.86 108.776 171.447 114.86 167.536 118.527C164.005 121.813 159.877 122.601 158.79 122.764C154.146 123.497 149.936 121.759 141.733 118.255C134.807 115.294 133.965 114.208 130.19 113.773C128.261 113.556 122.639 112.931 118.918 116.544C116.528 118.852 115.468 122.546 116.338 123.307C117.451 124.285 122.014 120.835 122.069 120.917C122.096 120.971 120.711 121.623 119.57 123.035C118.999 123.714 118.022 125.181 118.375 125.561C118.999 126.322 122.829 121.704 127.039 122.519C129.918 123.062 130.461 125.67 133.802 126.159C135.758 126.458 137.469 125.86 138.555 125.344C140.457 127.408 143.553 130.342 148.035 132.732C150.696 134.144 160.094 139.006 171.583 136.181C183.778 133.193 189.917 123.66 191.845 120.672C192.932 118.961 200.917 106.195 197.06 91.8816C196.381 89.5729 193.909 80.3382 188.586 79.632Z" fill="white" stroke="#191919" stroke-width="2"/>
<path opacity="0.25" d="M188.043 79.7135C186.277 80.637 189.699 87.047 189.265 96.2274C188.857 105.055 185.082 111.573 183.398 114.561C181.117 118.554 178.102 123.769 172.099 127.164C164.032 131.727 154.037 131.048 146.921 127.951C144.802 127.028 142.657 124.04 137.985 122.22C135.948 121.433 134.345 121.107 132.471 120.727C127.881 119.83 123.807 119.015 120.032 120.917C118.239 121.84 116.745 123.253 116.854 123.443C116.962 123.633 119.054 122.574 120.901 121.569C118.674 124.529 118.32 125.371 118.483 125.534C118.674 125.697 119.353 125.072 121.091 124.095C122.965 123.062 124.323 122.329 125.98 122.465C126.822 122.546 127.474 122.818 127.854 122.981C129.348 123.633 129.701 124.393 131.195 125.154C132.118 125.616 132.879 125.806 133.286 125.887C134.155 126.077 135.948 126.322 138.311 125.48C140.375 127.653 149.854 137.268 163.734 137.078C170.877 136.969 176.119 134.307 178.183 133.248C189.509 127.354 194.018 116.897 195.159 114.018C198.69 105.109 199.939 91.9088 193.475 83.6247C191.927 81.6148 189.265 79.0888 188.043 79.7135Z" fill="#6C6D6D"/>
<path d="M116.826 123.307C117.886 121.731 119.271 120.482 120.928 119.586C121.281 119.396 120.955 118.88 120.629 119.07C118.891 120.02 117.424 121.351 116.31 123.008C116.066 123.334 116.609 123.633 116.826 123.307Z" fill="#191919"/>
<path d="M117.152 119.803C118.212 118.146 119.923 117.277 121.634 116.435C121.987 116.272 121.688 115.729 121.335 115.919C119.516 116.788 117.723 117.739 116.609 119.504C116.419 119.83 116.935 120.129 117.152 119.803Z" fill="#191919"/>
<path opacity="0.29" d="M195.838 89.4915C195.43 92.2347 194.697 96.2002 193.393 100.872C190.84 110.107 188.531 118.418 182.502 125.018C175.032 133.166 164.901 135.394 159.089 136.073C163.407 137.077 166.802 136.887 168.948 136.589C185.245 134.307 194.045 116.788 196.435 109.129C196.843 107.771 197.712 104.973 197.82 101.144C198.01 96.0373 196.761 91.9359 195.838 89.4915Z" fill="#6C6D6D"/>
<path opacity="0.26" d="M127.582 122.193C129.13 122.954 131.249 123.796 133.856 124.285C135.92 124.665 137.767 124.746 139.234 124.692C135.513 126.675 133.585 126.43 132.498 125.778C131.819 125.371 131.059 124.556 128.967 123.117C128.397 122.709 127.908 122.383 127.582 122.193Z" fill="#6C6D6D"/>
<path d="M38.9288 165.243C52.1019 152.831 65.275 140.391 78.4752 127.979C99.7966 128.359 121.091 128.739 142.412 129.119C138.936 141.179 135.459 153.211 131.982 165.271C100.965 165.243 69.9467 165.243 38.9288 165.243Z" fill="white" stroke="#191919" stroke-width="2"/>
<path d="M142.086 129.119C138.99 141.206 135.432 153.184 131.358 164.972C131.005 165.977 132.58 166.384 132.933 165.407C137.007 153.592 140.565 141.641 143.662 129.554C143.906 128.549 142.358 128.115 142.086 129.119Z" fill="#161616"/>
<path d="M117.75 160.11C100.991 159.676 84.2058 159.268 67.4475 158.834C77.3884 149.327 87.3022 139.794 97.2431 130.287C108.705 130.885 120.194 131.482 131.656 132.08C127.012 141.451 122.394 150.767 117.75 160.11Z" fill="white" stroke="#191919" stroke-width="2"/>
<path d="M96.6729 130.097C86.9221 139.522 77.1713 148.974 67.4205 158.399C66.9859 143.297 66.5242 128.169 66.0896 113.067C75.9762 106.82 85.8628 100.573 95.7494 94.3262C96.021 106.25 96.3469 118.174 96.6729 130.097Z" fill="white" stroke="#191919" stroke-width="2"/>
<path d="M66.9859 114.507C67.7736 127.952 68.2896 141.423 68.5613 154.895C68.5613 155.167 68.9687 155.167 68.9687 154.895C68.6971 141.423 68.181 127.952 67.3933 114.507C67.3662 114.262 66.9588 114.262 66.9859 114.507Z" fill="#191919"/>
<path d="M67.2033 114.561C76.3022 108.64 85.4012 102.719 94.5001 96.7977C94.7174 96.6619 94.5273 96.3088 94.2828 96.4446C85.1839 102.366 76.0849 108.287 66.986 114.208C66.7687 114.371 66.9589 114.724 67.2033 114.561Z" fill="#191919"/>
<path d="M94.3913 96.7707C94.3642 107.608 94.6901 118.472 95.3963 129.282C95.4235 129.554 95.8309 129.554 95.8037 129.282C95.1247 118.445 94.7716 107.608 94.7988 96.7707C94.7988 96.5263 94.3913 96.5263 94.3913 96.7707Z" fill="#191919"/>
<path d="M68.8329 155.465C77.7417 146.855 86.6776 138.245 95.5864 129.662C95.7766 129.472 95.4778 129.201 95.2877 129.364C86.3789 137.974 77.4429 146.584 68.5341 155.167C68.3711 155.357 68.6428 155.656 68.8329 155.465Z" fill="#191919"/>
<path d="M110.09 150.848C111.747 148.213 113.404 145.552 115.007 142.863C115.142 142.645 114.789 142.428 114.654 142.645C113.051 145.334 111.394 147.996 109.737 150.631C109.574 150.848 109.928 151.065 110.09 150.848Z" fill="#191919"/>
<path d="M114.898 142.781C117.044 142.863 119.189 142.863 121.335 142.754C121.607 142.754 121.607 142.347 121.335 142.347C119.189 142.428 117.044 142.428 114.898 142.374C114.626 142.374 114.626 142.781 114.898 142.781Z" fill="#191919"/>
<path d="M121.063 142.645C119.841 145.307 118.592 147.969 117.342 150.631C117.234 150.875 117.587 151.065 117.695 150.848C118.945 148.186 120.194 145.525 121.416 142.863C121.525 142.591 121.172 142.401 121.063 142.645Z" fill="#191919"/>
<path d="M109.955 151.065C112.345 151.419 114.871 151.256 117.288 151.147C117.56 151.147 117.56 150.739 117.288 150.739C114.925 150.848 112.426 151.011 110.063 150.685C109.792 150.631 109.683 151.038 109.955 151.065Z" fill="#191919"/>
<path d="M118.863 142.673C117.777 145.389 116.528 148.023 115.115 150.577C114.979 150.794 115.332 151.011 115.468 150.794C116.881 148.186 118.157 145.525 119.271 142.781C119.352 142.537 118.972 142.428 118.863 142.673Z" fill="#191919"/>
<path d="M79.5073 154.977C85.4827 147.589 91.6754 140.364 98.0583 133.302C98.2212 133.112 97.9496 132.813 97.7595 133.003C91.3767 140.038 85.184 147.263 79.2085 154.678C79.0456 154.895 79.3443 155.167 79.5073 154.977Z" fill="#191919"/>
<path d="M86.7318 155.438C92.0826 147.969 97.732 140.744 103.653 133.737C103.816 133.546 103.544 133.248 103.354 133.438C97.4061 140.473 91.7566 147.725 86.3788 155.221C86.2158 155.438 86.5689 155.656 86.7318 155.438Z" fill="#191919"/>
<path d="M94.5 156.552C99.1445 148.784 104.224 141.287 109.71 134.09C109.873 133.873 109.52 133.682 109.357 133.873C103.871 141.07 98.7914 148.567 94.1469 156.335C94.0111 156.552 94.3642 156.769 94.5 156.552Z" fill="#191919"/>
<path d="M101.019 157.231C105.582 148.73 110.987 140.717 117.18 133.329C117.343 133.139 117.071 132.84 116.881 133.031C110.661 140.446 105.229 148.485 100.638 157.014C100.53 157.258 100.883 157.476 101.019 157.231Z" fill="#191919"/>
<path d="M82.9839 150.577C89.9371 149.843 96.8903 150.712 103.816 151.636C104.088 151.663 104.061 151.256 103.816 151.228C96.9175 150.305 89.9642 149.409 82.9839 150.169C82.7394 150.196 82.7394 150.604 82.9839 150.577Z" fill="#191919"/>
<path d="M86.4878 146.611C93.0607 146.366 99.6337 146.855 106.098 148.105C106.342 148.159 106.451 147.752 106.207 147.725C99.7152 146.475 93.0879 145.986 86.4878 146.231C86.2433 146.204 86.2433 146.611 86.4878 146.611Z" fill="#191919"/>
<path d="M89.6383 142.781C95.9668 142.374 102.295 142.944 108.461 144.465C108.705 144.52 108.814 144.139 108.569 144.085C102.377 142.537 96.0211 141.966 89.6383 142.374C89.3667 142.401 89.3667 142.808 89.6383 142.781Z" fill="#191919"/>
<path d="M92.8976 138.952C98.9816 138.979 105.011 139.603 110.96 140.826C111.204 140.88 111.313 140.473 111.068 140.445C105.093 139.223 99.0088 138.599 92.8976 138.571C92.6531 138.544 92.6531 138.952 92.8976 138.952Z" fill="#191919"/>
<path d="M96.1296 135.394C101.915 135.502 107.673 136.181 113.295 137.458C113.54 137.512 113.648 137.132 113.404 137.077C107.727 135.801 101.942 135.095 96.1296 135.013C95.858 134.986 95.858 135.394 96.1296 135.394Z" fill="#191919"/>
<path d="M114.762 139.522C112.1 143.433 109.466 147.345 106.804 151.256C106.668 151.473 107.021 151.69 107.157 151.473C109.819 147.562 112.453 143.651 115.115 139.739C115.278 139.495 114.925 139.305 114.762 139.522Z" fill="#191919"/>
<path d="M69.7836 133.601C73.1787 132.161 76.8455 132.976 80.4307 132.922C83.4456 132.895 86.3247 132.053 88.905 130.532C89.1222 130.396 88.9321 130.043 88.6877 130.179C85.5098 132.053 82.1419 132.65 78.5023 132.487C75.4603 132.352 72.4454 132.053 69.5663 133.275C69.349 133.357 69.5392 133.71 69.7836 133.601Z" fill="#191919"/>
<path d="M78.9369 131.917C84.7494 128.63 87.4383 121.704 93.4952 118.798C93.7397 118.69 93.5224 118.336 93.2779 118.445C87.1939 121.378 84.5321 128.277 78.7197 131.564C78.5024 131.7 78.6925 132.053 78.9369 131.917Z" fill="#191919"/>
<path d="M86.3246 112.551C85.3196 111.763 85.4826 110.487 86.053 109.482C86.3246 108.993 86.732 108.477 87.1937 108.178C88.0357 107.635 88.8234 108.07 89.4753 108.64C89.6654 108.803 89.9642 108.531 89.774 108.341C88.416 107.2 87.1394 107.309 86.0258 108.776C85.1295 109.971 84.6678 111.763 86.0258 112.85C86.2431 113.013 86.5419 112.714 86.3246 112.551Z" fill="#191919"/>
<path d="M169.98 92.6966C162.538 100.954 160.528 110.025 159.442 115.159C157.459 124.665 159.551 128.468 159.686 146.53C159.741 154.216 159.415 160.436 159.17 164.347C160.854 165.651 171.284 173.419 185.218 170.866C195.539 168.992 201.759 162.528 203.714 160.327C204.176 157.747 204.828 153.945 205.589 149.327C209.608 124.421 211.591 111.791 209.092 102.746C207.598 97.2597 203.905 88.5682 193.42 79.5779C189.02 80.5014 178.455 83.3261 169.98 92.6966Z" fill="#4FCA44"/>
<path opacity="0.19" d="M177.558 87.6989C180.139 95.4126 181.524 102.013 182.339 106.847C184.484 119.64 187.717 138.816 178.618 157.394C175.711 163.315 172.316 167.661 169.926 170.35C173.077 171.083 179.324 172.088 186.766 170.16C195.62 167.878 201.161 162.745 203.443 160.409C205.208 150.305 206.621 141.641 207.707 134.878C209.581 122.981 210.016 119.369 209.826 114.289C209.608 107.771 209.31 100.926 205.398 93.5385C201.65 86.4766 196.381 82.2395 193.149 80.0667C190.514 80.5284 186.793 81.5062 182.855 83.7877C180.682 85.0914 178.916 86.4766 177.558 87.6989Z" fill="#6C6D6D"/>
<path opacity="0.18" d="M208.413 100.655C207.924 100.682 208.956 108.205 207.354 118.581C204.393 137.784 194.887 151.092 191.22 155.819C188.151 159.757 183.344 165.189 176.309 170.54C178.835 170.92 182.203 171.083 186.06 170.35C195.213 168.638 201.025 163.016 203.253 160.599C203.823 157.285 204.746 152.097 205.914 145.687C208.658 130.695 209.201 128.902 209.635 124.23C210.83 111.492 208.984 100.655 208.413 100.655Z" fill="#6C6D6D"/>
<path d="M122.123 120.835C121.607 120.482 120.574 119.83 120.683 119.287C120.9 118.418 124.024 118.282 126.278 118.662C127.799 118.907 130.57 119.694 133.476 122.438C130.217 122.899 125.518 123.035 122.123 120.835Z" fill="white" stroke="#191919" stroke-width="2"/>
<path d="M198.798 94.815C193.339 93.2125 186.956 100.573 186.386 101.279C184.213 103.86 183.697 105.707 181.66 110.704C176.716 122.927 174.136 129.092 169.247 132.297C164.874 135.176 160.284 135.285 159.062 135.285C153.928 135.258 149.691 132.705 141.434 127.598C134.481 123.28 133.775 121.976 129.755 120.89C127.718 120.346 121.742 118.717 117.098 121.894C114.137 123.904 112.318 127.653 113.132 128.603C114.165 129.826 119.705 126.946 119.733 127.055C119.76 127.109 118.13 127.571 116.663 128.875C115.93 129.5 114.626 130.858 114.925 131.347C115.468 132.27 120.412 128.033 124.812 129.608C127.799 130.667 127.962 133.519 131.466 134.633C133.53 135.285 135.486 134.932 136.735 134.579C138.419 137.105 141.271 140.717 145.671 144.004C148.306 145.959 157.595 152.695 170.496 151.69C184.186 150.631 192.497 141.586 195.077 138.789C196.571 137.186 207.408 125.045 205.751 109.237C205.507 106.657 204.448 96.499 198.798 94.815Z" fill="white" stroke="#191919" stroke-width="2"/>
<path opacity="0.25" d="M198.201 94.8148C196.136 95.4939 198.717 102.854 196.625 112.497C194.643 121.759 189.428 128.006 187.065 130.857C183.887 134.687 179.731 139.685 172.642 142.238C163.136 145.66 152.462 143.243 145.318 138.761C143.2 137.403 141.407 133.9 136.654 131.156C134.59 129.961 132.933 129.364 130.95 128.63C126.17 126.892 121.878 125.317 117.505 126.702C115.414 127.354 113.54 128.603 113.649 128.82C113.757 129.065 116.175 128.277 118.347 127.544C115.441 130.287 114.898 131.129 115.034 131.346C115.197 131.564 116.066 130.993 118.103 130.287C120.33 129.499 121.878 128.983 123.671 129.418C124.567 129.635 125.219 130.043 125.627 130.287C127.12 131.211 127.365 132.107 128.832 133.166C129.728 133.818 130.543 134.144 130.977 134.307C131.874 134.66 133.775 135.23 136.464 134.741C138.311 137.403 146.866 149.191 161.886 151.364C169.627 152.478 175.739 150.576 178.156 149.789C191.41 145.497 198.119 135.23 199.858 132.378C205.235 123.578 208.902 109.835 203.361 99.9483C202.058 97.4766 199.613 94.3531 198.201 94.8148Z" fill="#6C6D6D"/>
<path d="M113.621 128.685C115.061 127.191 116.745 126.104 118.701 125.453C119.081 125.317 118.918 124.746 118.538 124.855C116.5 125.561 114.681 126.702 113.187 128.25C112.915 128.549 113.35 128.983 113.621 128.685Z" fill="#191919"/>
<path d="M114.599 125.045C116.039 123.443 118.049 122.818 120.059 122.248C120.439 122.139 120.276 121.541 119.896 121.65C117.804 122.275 115.686 122.954 114.192 124.611C113.893 124.909 114.328 125.317 114.599 125.045Z" fill="#191919"/>
<path opacity="0.29" d="M204.909 106.494C203.986 109.319 202.492 113.393 200.292 118.119C195.919 127.435 191.981 135.828 184.294 141.776C174.815 149.11 163.462 149.734 157.079 149.436C161.56 151.255 165.281 151.636 167.644 151.69C185.625 152.07 198.228 135.04 202.139 127.381C202.818 126.023 204.23 123.198 205.045 119.178C206.104 113.773 205.48 109.237 204.909 106.494Z" fill="#6C6D6D"/>
<path opacity="0.26" d="M125.464 129.337C126.985 130.396 129.13 131.645 131.874 132.623C134.046 133.384 136.029 133.764 137.605 133.954C133.232 135.394 131.195 134.823 130.135 133.954C129.483 133.411 128.804 132.406 126.767 130.532C126.251 130.016 125.79 129.608 125.464 129.337Z" fill="#6C6D6D"/>
<path d="M156.699 40.0314C156.4 41.7697 156.101 43.508 155.857 45.3278C154.797 52.7156 154.363 59.696 154.336 66.1874C155.829 66.0245 157.296 65.8615 158.79 65.7257C158.627 67.1652 158.165 72.4345 161.533 77.6494C164.711 82.5655 169.274 84.3581 170.686 84.847C170.524 87.5088 170.388 90.1434 170.225 92.8052C173.158 90.1977 177.151 87.1285 182.23 84.3853C186.114 82.2939 189.781 80.8544 192.904 79.8766C189.4 75.5308 188.07 71.4295 187.499 69.0665C186.521 64.9923 186.711 61.4886 186.902 58.3922C187.092 55.2144 187.553 52.5798 187.961 50.7328C189.237 44.9204 185.897 35.7128 179.242 32.3992C172.669 29.1127 162.864 31.8831 156.699 40.0314Z" fill="white" stroke="#161616" stroke-width="2"/>
<path d="M158.165 65.9157C158.926 65.807 159.714 65.7255 160.474 65.6441C160.746 65.6169 160.746 65.2095 160.474 65.2367C159.659 65.3181 158.872 65.4268 158.057 65.5354C157.812 65.5354 157.921 65.9428 158.165 65.9157Z" fill="#161616"/>
<path d="M182.664 44.2413C179.378 45.0833 178.78 47.9352 174.625 53.8834C170.415 59.9132 167.753 63.6886 163 65.8886C159.931 67.301 158.41 66.9207 157.052 68.7405C154.716 71.8912 156.291 77.0789 157.676 79.7407C159.279 82.8099 161.723 84.6568 163.733 86.1778C165.662 87.6174 167.427 88.568 168.677 89.1384C167.346 87.1013 167.264 86.4766 167.427 86.2865C167.862 85.8519 169.709 88.1878 171.882 87.889C172.506 87.8075 173.62 87.4544 176.091 83.5704C177.775 80.9358 178.916 79.116 179.677 76.5085C181.334 70.9134 178.998 69.3924 179.677 62.0317C179.785 60.9181 180.546 52.1995 183.642 51.6291C184.756 51.4118 185.897 52.3353 186.44 53.0414C187.581 54.5353 187.445 56.9255 186.032 58.9897C186.494 58.6638 190.921 55.6761 190.867 50.8142C190.867 50.0537 190.84 47.2562 188.721 45.4364C186.304 43.3721 182.936 44.187 182.664 44.2413Z" fill="#161616" stroke="#161616" stroke-width="2"/>
<ellipse cx="160.773" cy="54.5625" rx="1.14076" ry="2.03707" fill="#161616"/>
<ellipse cx="152.081" cy="55.5131" rx="1.14076" ry="2.03707" fill="#161616"/>
<path d="M150.37 52.1723C151.103 51.3303 152.244 51.2488 153.059 52.0636C153.439 52.4439 154.01 51.8463 153.629 51.4932C152.516 50.4068 150.805 50.434 149.772 51.6019C149.474 52.0093 150.044 52.5797 150.37 52.1723Z" fill="#161616"/>
<path d="M159.279 50.76C160.23 49.9724 161.479 50.081 162.294 50.9773C162.647 51.3576 163.217 50.7872 162.864 50.4069C161.723 49.1847 159.958 49.1304 158.681 50.1897C158.301 50.5156 158.871 51.086 159.279 50.76Z" fill="#161616"/>
<path d="M155.775 43.2634C156.074 41.3078 156.835 38.1028 158.926 34.7892C159.659 33.6213 161.235 31.1496 163.734 29.4656C168.514 26.2878 175.875 26.5322 181.225 30.4434C186.467 34.2731 189.075 41.1177 187.934 47.9079C177.205 46.3869 166.504 44.8387 155.775 43.2634Z" fill="#4FCA44"/>
<path d="M138.229 43.5079C154.716 45.6265 171.23 47.7451 187.717 49.8365C189.265 50.0266 189.265 47.5821 187.717 47.392C171.23 45.2734 154.716 43.1549 138.229 41.0635C136.681 40.8462 136.681 43.2907 138.229 43.5079Z" fill="#161616"/>
<path d="M169.736 27.483C173.973 28.4065 177.178 31.8287 177.721 35.93C178.21 39.5153 176.635 43.1549 173.647 45.3821C178.346 46.0068 183.072 46.6586 187.771 47.2833C188.015 46.0339 188.232 44.1327 187.934 41.9055C187.228 36.6905 184.213 33.3497 183.235 32.3448C182.176 31.2584 178.427 27.6188 172.859 27.2929C171.583 27.2385 170.496 27.3472 169.736 27.483Z" fill="#1A673C"/>
</g>
<defs>
<filter id="filter0_d_998_2546" x="-83" y="-79" width="462" height="328" filterUnits="userSpaceOnUse" color-interpolation-filters="sRGB">
<feFlood flood-opacity="0" result="BackgroundImageFix"/>
<feColorMatrix in="SourceAlpha" type="matrix" values="0 0 0 0 0 0 0 0 0 0 0 0 0 0 0 0 0 0 127 0" result="hardAlpha"/>
<feOffset dy="4"/>
<feGaussianBlur stdDeviation="41.5"/>
<feComposite in2="hardAlpha" operator="out"/>
<feColorMatrix type="matrix" values="0 0 0 0 0 0 0 0 0 0 0 0 0 0 0 0 0 0 0.05 0"/>
<feBlend mode="normal" in2="BackgroundImageFix" result="effect1_dropShadow_998_2546"/>
<feBlend mode="normal" in="SourceGraphic" in2="effect1_dropShadow_998_2546" result="shape"/>
</filter>
<clipPath id="clip0_998_2546">
<rect width="296" height="162" rx="18" fill="white"/>
</clipPath>
</defs>
</svg>
