<svg width="34" height="34" viewBox="0 0 34 34" fill="none" xmlns="http://www.w3.org/2000/svg">
<circle cx="17" cy="17" r="17" fill="white"/>
<circle cx="17" cy="17" r="14" fill="#E8434B"/>
<path d="M14.6634 22.078C13.9614 22.078 13.333 21.8917 12.7784 21.519C12.2324 21.1463 11.8034 20.6133 11.4914 19.92C11.188 19.218 11.0364 18.3947 11.0364 17.45C11.0364 16.5053 11.188 15.6863 11.4914 14.993C11.8034 14.291 12.2324 13.7537 12.7784 13.381C13.333 13.0083 13.9614 12.822 14.6634 12.822C15.3654 12.822 15.9894 13.0083 16.5354 13.381C17.09 13.7537 17.5234 14.291 17.8354 14.993C18.1474 15.6863 18.3034 16.5053 18.3034 17.45C18.3034 18.3947 18.1474 19.218 17.8354 19.92C17.5234 20.6133 17.09 21.1463 16.5354 21.519C15.9894 21.8917 15.3654 22.078 14.6634 22.078ZM14.6634 21.22C15.192 21.22 15.6557 21.0727 16.0544 20.778C16.4617 20.4833 16.778 20.0543 17.0034 19.491C17.2287 18.9277 17.3414 18.2473 17.3414 17.45C17.3414 16.6527 17.2287 15.9723 17.0034 15.409C16.778 14.8457 16.4617 14.4167 16.0544 14.122C15.6557 13.8273 15.192 13.68 14.6634 13.68C14.1347 13.68 13.6667 13.8273 13.2594 14.122C12.8607 14.4167 12.5487 14.8457 12.3234 15.409C12.098 15.9723 11.9854 16.6527 11.9854 17.45C11.9854 18.2473 12.098 18.9277 12.3234 19.491C12.5487 20.0543 12.8607 20.4833 13.2594 20.778C13.6667 21.0727 14.1347 21.22 14.6634 21.22ZM22.1404 12.9V22H21.2044V13.732H19.0594V12.9H22.1404Z" fill="white"/>
</svg>
