<svg width="183" height="200" viewBox="0 0 183 200" fill="none" xmlns="http://www.w3.org/2000/svg">
<ellipse opacity="0.1" cx="75.135" cy="87.1895" rx="65.4987" ry="72.34" transform="rotate(-8.18914 75.135 87.1895)" fill="#E8434B"/>
<ellipse opacity="0.1" cx="97.4322" cy="120.51" rx="65.4987" ry="52.4894" transform="rotate(-109.976 97.4322 120.51)" fill="#E8434B"/>
<ellipse cx="94.5855" cy="92.0023" rx="65.4987" ry="72.34" transform="rotate(22.6816 94.5855 92.0023)" fill="#E8434B"/>
<path d="M72.1338 84.301C72.7945 84.301 73.4282 84.0385 73.8954 83.5713C74.3626 83.1041 74.6251 82.4704 74.6251 81.8097V74.3356C74.6251 73.6748 74.8876 73.0411 75.3548 72.5739C75.8221 72.1067 76.4557 71.8442 77.1165 71.8442H84.5906C85.2514 71.8442 85.885 71.5817 86.3523 71.1145C86.8195 70.6473 87.082 70.0136 87.082 69.3528C87.082 68.6921 86.8195 68.0584 86.3523 67.5912C85.885 67.1239 85.2514 66.8615 84.5906 66.8615H77.1165C75.1342 66.8615 73.2332 67.6489 71.8315 69.0506C70.4298 70.4522 69.6424 72.3533 69.6424 74.3356V81.8097C69.6424 82.4704 69.9049 83.1041 70.3721 83.5713C70.8393 84.0385 71.473 84.301 72.1338 84.301ZM84.5906 111.706H77.1165C76.4557 111.706 75.8221 111.444 75.3548 110.976C74.8876 110.509 74.6251 109.875 74.6251 109.215V101.741C74.6251 101.08 74.3626 100.446 73.8954 99.9789C73.4282 99.5117 72.7945 99.2492 72.1338 99.2492C71.473 99.2492 70.8393 99.5117 70.3721 99.9789C69.9049 100.446 69.6424 101.08 69.6424 101.741V109.215C69.6424 111.197 70.4298 113.098 71.8315 114.5C73.2332 115.901 75.1342 116.689 77.1165 116.689H84.5906C85.2514 116.689 85.885 116.426 86.3523 115.959C86.8195 115.492 87.082 114.858 87.082 114.197C87.082 113.537 86.8195 112.903 86.3523 112.436C85.885 111.969 85.2514 111.706 84.5906 111.706ZM107.013 94.2665C107.674 94.2665 108.307 94.004 108.775 93.5368C109.242 93.0696 109.504 92.4359 109.504 91.7751C109.504 91.1144 109.242 90.4807 108.775 90.0135C108.307 89.5462 107.674 89.2838 107.013 89.2838H104.173C103.725 87.5701 102.829 86.0065 101.577 84.7542C100.325 83.5018 98.7611 82.6058 97.0474 82.1584V79.3183C97.0474 78.6575 96.785 78.0238 96.3177 77.5566C95.8505 77.0894 95.2168 76.8269 94.5561 76.8269C93.8953 76.8269 93.2616 77.0894 92.7944 77.5566C92.3272 78.0238 92.0647 78.6575 92.0647 79.3183V82.1584C90.351 82.6058 88.7875 83.5018 87.5351 84.7542C86.2827 86.0065 85.3867 87.5701 84.9394 89.2838H82.0992C81.4385 89.2838 80.8048 89.5462 80.3376 90.0135C79.8703 90.4807 79.6079 91.1144 79.6079 91.7751C79.6079 92.4359 79.8703 93.0696 80.3376 93.5368C80.8048 94.004 81.4385 94.2665 82.0992 94.2665H84.9394C85.3867 95.9802 86.2827 97.5437 87.5351 98.7961C88.7875 100.048 90.351 100.944 92.0647 101.392V104.232C92.0647 104.893 92.3272 105.526 92.7944 105.994C93.2616 106.461 93.8953 106.723 94.5561 106.723C95.2168 106.723 95.8505 106.461 96.3177 105.994C96.785 105.526 97.0474 104.893 97.0474 104.232V101.392C98.7611 100.944 100.325 100.048 101.577 98.7961C102.829 97.5437 103.725 95.9802 104.173 94.2665H107.013ZM94.5561 96.7579C93.5706 96.7579 92.6072 96.4656 91.7878 95.9181C90.9684 95.3706 90.3298 94.5924 89.9526 93.6819C89.5755 92.7715 89.4768 91.7696 89.6691 90.803C89.8613 89.8365 90.3359 88.9487 91.0327 88.2518C91.7296 87.555 92.6174 87.0804 93.584 86.8881C94.5505 86.6959 95.5524 86.7945 96.4629 87.1717C97.3734 87.5488 98.1516 88.1875 98.6991 89.0069C99.2466 89.8263 99.5388 90.7896 99.5388 91.7751C99.5388 93.0966 99.0138 94.364 98.0794 95.2985C97.145 96.2329 95.8776 96.7579 94.5561 96.7579ZM116.978 99.2492C116.318 99.2492 115.684 99.5117 115.217 99.9789C114.749 100.446 114.487 101.08 114.487 101.741V109.215C114.487 109.875 114.225 110.509 113.757 110.976C113.29 111.444 112.656 111.706 111.996 111.706H104.522C103.861 111.706 103.227 111.969 102.76 112.436C102.293 112.903 102.03 113.537 102.03 114.197C102.03 114.858 102.293 115.492 102.76 115.959C103.227 116.426 103.861 116.689 104.522 116.689H111.996C113.978 116.689 115.879 115.901 117.281 114.5C118.682 113.098 119.47 111.197 119.47 109.215V101.741C119.47 101.08 119.207 100.446 118.74 99.9789C118.273 99.5117 117.639 99.2492 116.978 99.2492ZM111.996 66.8615H104.522C103.861 66.8615 103.227 67.1239 102.76 67.5912C102.293 68.0584 102.03 68.6921 102.03 69.3528C102.03 70.0136 102.293 70.6473 102.76 71.1145C103.227 71.5817 103.861 71.8442 104.522 71.8442H111.996C112.656 71.8442 113.29 72.1067 113.757 72.5739C114.225 73.0411 114.487 73.6748 114.487 74.3356V81.8097C114.487 82.4704 114.749 83.1041 115.217 83.5713C115.684 84.0385 116.318 84.301 116.978 84.301C117.639 84.301 118.273 84.0385 118.74 83.5713C119.207 83.1041 119.47 82.4704 119.47 81.8097V74.3356C119.47 72.3533 118.682 70.4522 117.281 69.0506C115.879 67.6489 113.978 66.8615 111.996 66.8615Z" fill="white"/>
</svg>
