<svg width="34" height="34" viewBox="0 0 34 34" fill="none" xmlns="http://www.w3.org/2000/svg">
<circle cx="17" cy="17" r="17" fill="white"/>
<circle cx="17" cy="17" r="14" fill="#14623A"/>
<path d="M12.7019 22.078C11.9999 22.078 11.3716 21.8917 10.8169 21.519C10.2709 21.1463 9.84193 20.6133 9.52993 19.92C9.22659 19.218 9.07493 18.3947 9.07493 17.45C9.07493 16.5053 9.22659 15.6863 9.52993 14.993C9.84193 14.291 10.2709 13.7537 10.8169 13.381C11.3716 13.0083 11.9999 12.822 12.7019 12.822C13.4039 12.822 14.0279 13.0083 14.5739 13.381C15.1286 13.7537 15.5619 14.291 15.8739 14.993C16.1859 15.6863 16.3419 16.5053 16.3419 17.45C16.3419 18.3947 16.1859 19.218 15.8739 19.92C15.5619 20.6133 15.1286 21.1463 14.5739 21.519C14.0279 21.8917 13.4039 22.078 12.7019 22.078ZM12.7019 21.22C13.2306 21.22 13.6943 21.0727 14.0929 20.778C14.5003 20.4833 14.8166 20.0543 15.0419 19.491C15.2673 18.9277 15.3799 18.2473 15.3799 17.45C15.3799 16.6527 15.2673 15.9723 15.0419 15.409C14.8166 14.8457 14.5003 14.4167 14.0929 14.122C13.6943 13.8273 13.2306 13.68 12.7019 13.68C12.1733 13.68 11.7053 13.8273 11.2979 14.122C10.8993 14.4167 10.5873 14.8457 10.3619 15.409C10.1366 15.9723 10.0239 16.6527 10.0239 17.45C10.0239 18.2473 10.1366 18.9277 10.3619 19.491C10.5873 20.0543 10.8993 20.4833 11.2979 20.778C11.7053 21.0727 12.1733 21.22 12.7019 21.22ZM25.4173 19.608H23.5973V22H22.6613V19.608H17.5263V18.932L22.3493 12.9H23.3893L18.7353 18.776H22.6873V16.67H23.5973V18.776H25.4173V19.608Z" fill="white"/>
</svg>
