<svg width="183" height="200" viewBox="0 0 183 200" fill="none" xmlns="http://www.w3.org/2000/svg">
<ellipse opacity="0.1" cx="75.135" cy="87.1895" rx="65.4987" ry="72.34" transform="rotate(-8.18914 75.135 87.1895)" fill="#E8434B"/>
<ellipse opacity="0.1" cx="97.4322" cy="120.51" rx="65.4987" ry="52.4894" transform="rotate(-109.976 97.4322 120.51)" fill="#E8434B"/>
<ellipse cx="94.5855" cy="92.0023" rx="65.4987" ry="72.34" transform="rotate(22.6816 94.5855 92.0023)" fill="#E8434B"/>
<path d="M105.222 94.1138C104.915 93.9913 104.586 93.9307 104.254 93.9353C103.923 93.94 103.596 94.0098 103.292 94.1409C102.988 94.2719 102.712 94.4616 102.481 94.6992C102.25 94.9367 102.068 95.2173 101.946 95.5251C101.823 95.833 101.763 96.1619 101.767 96.4931C101.772 96.8244 101.842 97.1514 101.973 97.4557C102.104 97.7599 102.294 98.0354 102.531 98.2663C102.769 98.4972 103.049 98.6791 103.357 98.8016C107.037 100.263 109.33 102.532 109.33 104.724C109.33 108.303 103.13 112.285 94.2085 112.285C85.2865 112.285 79.0865 108.303 79.0865 104.724C79.0865 102.532 81.38 100.263 85.0597 98.8016C85.6813 98.5543 86.1792 98.0701 86.4439 97.4557C86.7086 96.8412 86.7184 96.1468 86.471 95.5251C86.2237 94.9035 85.7396 94.4056 85.1251 94.1409C84.5107 93.8762 83.8162 93.8664 83.1946 94.1138C77.4734 96.3821 74.0458 100.339 74.0458 104.724C74.0458 111.781 82.8922 117.326 94.2085 117.326C105.525 117.326 114.371 111.781 114.371 104.724C114.371 100.339 110.944 96.3821 105.222 94.1138ZM91.6881 86.7292V104.724C91.6881 105.393 91.9537 106.034 92.4263 106.507C92.899 106.979 93.54 107.245 94.2085 107.245C94.8769 107.245 95.518 106.979 95.9906 106.507C96.4633 106.034 96.7288 105.393 96.7288 104.724V86.7292C99.1046 86.1157 101.175 84.6569 102.552 82.626C103.929 80.5952 104.519 78.1318 104.209 75.6977C103.9 73.2635 102.714 71.0256 100.873 69.4036C99.0317 67.7815 96.6622 66.8866 94.2085 66.8866C91.7547 66.8866 89.3852 67.7815 87.5441 69.4036C85.703 71.0256 84.5167 73.2635 84.2075 75.6977C83.8983 78.1318 84.4875 80.5952 85.8646 82.626C87.2418 84.6569 89.3123 86.1157 91.6881 86.7292ZM94.2085 71.96C95.2054 71.96 96.18 72.2556 97.0089 72.8095C97.8379 73.3634 98.4839 74.1506 98.8655 75.0717C99.247 75.9927 99.3468 77.0063 99.1523 77.9841C98.9578 78.9619 98.4777 79.86 97.7728 80.565C97.0678 81.2699 96.1697 81.75 95.1919 81.9445C94.2141 82.139 93.2006 82.0392 92.2795 81.6576C91.3584 81.2761 90.5712 80.6301 90.0173 79.8011C89.4634 78.9722 89.1678 77.9976 89.1678 77.0007C89.1678 75.6638 89.6989 74.3817 90.6442 73.4364C91.5895 72.4911 92.8716 71.96 94.2085 71.96Z" fill="white"/>
</svg>
