<svg width="34" height="34" viewBox="0 0 34 34" fill="none" xmlns="http://www.w3.org/2000/svg">
<circle cx="17" cy="17" r="17" fill="white"/>
<circle cx="17" cy="17" r="14" fill="#14623A"/>
<path d="M13.3176 22.078C12.6156 22.078 11.9873 21.8917 11.4326 21.519C10.8866 21.1463 10.4576 20.6133 10.1456 19.92C9.84232 19.218 9.69065 18.3947 9.69065 17.45C9.69065 16.5053 9.84232 15.6863 10.1456 14.993C10.4576 14.291 10.8866 13.7537 11.4326 13.381C11.9873 13.0083 12.6156 12.822 13.3176 12.822C14.0196 12.822 14.6436 13.0083 15.1896 13.381C15.7443 13.7537 16.1776 14.291 16.4896 14.993C16.8016 15.6863 16.9576 16.5053 16.9576 17.45C16.9576 18.3947 16.8016 19.218 16.4896 19.92C16.1776 20.6133 15.7443 21.1463 15.1896 21.519C14.6436 21.8917 14.0196 22.078 13.3176 22.078ZM13.3176 21.22C13.8463 21.22 14.31 21.0727 14.7086 20.778C15.116 20.4833 15.4323 20.0543 15.6576 19.491C15.883 18.9277 15.9956 18.2473 15.9956 17.45C15.9956 16.6527 15.883 15.9723 15.6576 15.409C15.4323 14.8457 15.116 14.4167 14.7086 14.122C14.31 13.8273 13.8463 13.68 13.3176 13.68C12.789 13.68 12.321 13.8273 11.9136 14.122C11.515 14.4167 11.203 14.8457 10.9776 15.409C10.7523 15.9723 10.6396 16.6527 10.6396 17.45C10.6396 18.2473 10.7523 18.9277 10.9776 19.491C11.203 20.0543 11.515 20.4833 11.9136 20.778C12.321 21.0727 12.789 21.22 13.3176 21.22ZM24.4867 21.168V22H18.1037V21.337L21.8867 17.632C22.3633 17.164 22.684 16.761 22.8487 16.423C23.022 16.0763 23.1087 15.7297 23.1087 15.383C23.1087 14.8457 22.9223 14.4297 22.5497 14.135C22.1857 13.8317 21.6613 13.68 20.9767 13.68C19.9107 13.68 19.083 14.018 18.4937 14.694L17.8307 14.122C18.186 13.706 18.6367 13.3853 19.1827 13.16C19.7373 12.9347 20.3613 12.822 21.0547 12.822C21.982 12.822 22.7143 13.043 23.2517 13.485C23.7977 13.9183 24.0707 14.5163 24.0707 15.279C24.0707 15.747 23.9667 16.1977 23.7587 16.631C23.5507 17.0643 23.1563 17.5627 22.5757 18.126L19.4817 21.168H24.4867Z" fill="white"/>
</svg>
