<svg width="71" height="71" viewBox="0 0 71 71" fill="none" xmlns="http://www.w3.org/2000/svg">
<g filter="url(#filter0_d_938_30)">
<circle cx="35.5" cy="31.5" r="20.5" fill="white"/>
<circle cx="35.5" cy="31.5" r="20" stroke="#E7E7E7" stroke-opacity="0.905882"/>
</g>
<path d="M41.9358 31.0868C41.884 30.9534 41.8065 30.8315 41.7075 30.7281L36.2719 25.2925C36.1705 25.1911 36.0502 25.1107 35.9177 25.0559C35.7853 25.001 35.6434 24.9728 35.5 24.9728C35.2105 24.9728 34.9329 25.0878 34.7282 25.2925C34.6268 25.3939 34.5464 25.5142 34.4915 25.6466C34.4367 25.7791 34.4085 25.921 34.4085 26.0643C34.4085 26.3539 34.5235 26.6315 34.7282 26.8362L38.3157 30.4128H30.0644C29.7761 30.4128 29.4996 30.5274 29.2957 30.7312C29.0918 30.9351 28.9773 31.2116 28.9773 31.5C28.9773 31.7883 29.0918 32.0648 29.2957 32.2687C29.4996 32.4725 29.7761 32.5871 30.0644 32.5871H38.3157L34.7282 36.1637C34.6263 36.2648 34.5454 36.385 34.4902 36.5175C34.435 36.65 34.4066 36.792 34.4066 36.9356C34.4066 37.0791 34.435 37.2212 34.4902 37.3536C34.5454 37.4861 34.6263 37.6064 34.7282 37.7074C34.8292 37.8093 34.9495 37.8902 35.0819 37.9454C35.2144 38.0006 35.3565 38.029 35.5 38.029C35.6435 38.029 35.7856 38.0006 35.9181 37.9454C36.0506 37.8902 36.1708 37.8093 36.2719 37.7074L41.7075 32.2718C41.8065 32.1684 41.884 32.0465 41.9358 31.9131C42.0445 31.6484 42.0445 31.3515 41.9358 31.0868Z" fill="#E34B94"/>
<defs>
<filter id="filter0_d_938_30" x="0" y="0" width="71" height="71" filterUnits="userSpaceOnUse" color-interpolation-filters="sRGB">
<feFlood flood-opacity="0" result="BackgroundImageFix"/>
<feColorMatrix in="SourceAlpha" type="matrix" values="0 0 0 0 0 0 0 0 0 0 0 0 0 0 0 0 0 0 127 0" result="hardAlpha"/>
<feOffset dy="4"/>
<feGaussianBlur stdDeviation="7.5"/>
<feComposite in2="hardAlpha" operator="out"/>
<feColorMatrix type="matrix" values="0 0 0 0 0 0 0 0 0 0 0 0 0 0 0 0 0 0 0.05 0"/>
<feBlend mode="normal" in2="BackgroundImageFix" result="effect1_dropShadow_938_30"/>
<feBlend mode="normal" in="SourceGraphic" in2="effect1_dropShadow_938_30" result="shape"/>
</filter>
</defs>
</svg>
